<svg width="945" height="480" viewBox="0 0 945 480" fill="none" xmlns="http://www.w3.org/2000/svg">
<g filter="url(#filter0_d_66_31)">
<path d="M54 445.582L524 454L519.224 387.303L232.638 375L54 445.582Z" fill="black" fill-opacity="0.5"/>
<path d="M10 358.521C144.924 387.146 444.309 377.554 503.353 444.5L455.117 380.09C392.062 280.364 254.95 297.654 132.972 269.249L10 358.521Z" fill="#FF697C"/>
<path d="M21.7849 268.235C148.91 303.028 448.223 365.128 503.853 446.5L457.91 365.392C398.5 244.176 194.173 202.609 146.262 170.341L21.7849 268.235Z" fill="#FF8F7D"/>
<path d="M56.1145 200.267C183.262 246.314 447.785 323.363 503.426 431.054L457.902 321.331C398.481 160.909 245.456 130.875 197.536 88.1703L56.1145 200.267Z" fill="#F1CF38"/>
<path d="M95.5681 133.82C212.617 183.682 452.205 330.673 503.426 447.285L461.518 328.473C406.816 154.761 257.53 106.008 213.416 59.7657L95.5681 133.82Z" fill="#00BF92"/>
<path d="M480.055 402.754C486.424 413.845 491.87 424.667 496.252 435.111L480.055 402.754C412.362 284.876 240.425 136.65 133.997 89.1848L254.884 8.02893C298.769 56.1904 424.198 218.96 478.616 399.879L480.055 402.754Z" fill="#48A2B5"/>
<path d="M200.92 57.2217C321.632 109.675 454.112 324.158 508.708 444.114C509.155 445.095 510.599 444.702 510.599 443.623V394.536C510.599 394.461 510.591 394.386 510.574 394.312C468.98 213.424 348.217 25.311 304.273 19.2167C304.119 19.1954 303.979 19.2146 303.833 19.2659L201.015 55.3525C200.151 55.6559 200.079 56.8565 200.92 57.2217Z" fill="#DBE9EC"/>
<path d="M343.562 6L394.555 23.1474C400.853 25.5 401.853 29.5 404.023 33.3901C444.487 146.901 509.922 360.953 521.759 380.34C534.155 400.643 538.985 400.102 541.855 398.591L909.234 402.142C932.093 432.959 938.891 458.239 932.291 457.937C800.581 453.707 534.155 452.488 521.759 451.038C509.362 449.588 493.353 435.5 487.853 420.5L343.562 6Z" fill="#F4F4F4"/>
<path d="M375.029 34.6583L398.658 42.5484C399.254 42.7475 399.722 43.2156 399.921 43.8121L510.266 374.338C510.475 374.963 510.362 375.65 509.966 376.175L495.364 395.552C494.394 396.839 492.379 396.51 491.869 394.982L372.498 37.1883C371.976 35.6242 373.465 34.1361 375.029 34.6583Z" fill="url(#paint0_linear_66_31)"/>
<path d="M930.933 450.337C799.44 446.179 538.627 437.624 525.649 437.624C513.862 437.624 497.686 434.222 493.203 430.139C498.254 451.689 517.335 454.195 523.087 454.255C652.588 458.967 917.417 467.712 925.614 465.051C933.811 462.39 936.252 456.933 934.124 454.396L930.933 450.337Z" fill="url(#paint1_linear_66_31)"/>
</g>
<path d="M613.992 276.06C614.376 276.572 614.76 277.297 615.144 278.236C615.528 279.174 615.763 280.134 615.848 281.116L607.208 285.34C606.099 284.785 604.925 284.06 603.688 283.164C602.451 282.268 601.469 281.286 600.744 280.22C601.512 277.532 602.024 274.822 602.28 272.092C602.536 269.361 602.6 266.822 602.472 264.476C602.387 262.086 602.152 260.124 601.768 258.588C600.317 259.185 598.781 260.401 597.16 262.236C595.539 264.07 594.045 266.246 592.68 268.764L592.296 284.316C591.357 284.572 590.269 284.7 589.032 284.7C587.795 284.7 586.685 284.572 585.704 284.316C584.381 282.908 583.293 281.308 582.44 279.516C583.08 276.316 584.04 273.308 585.32 270.492C585.491 268.102 585.512 265.862 585.384 263.772C585.256 261.681 585.021 259.953 584.68 258.588C582.973 259.228 581.267 260.529 579.56 262.492C577.853 264.412 576.317 266.652 574.952 269.212L574.568 284.316C573.629 284.572 572.541 284.7 571.304 284.7C570.067 284.7 568.957 284.572 567.976 284.316C566.653 282.908 565.565 281.308 564.712 279.516C565.096 277.51 565.608 275.59 566.248 273.756C566.931 271.921 567.699 270.15 568.552 268.444V267.932L567.784 259.1L562.216 260.508C561.917 259.996 561.555 259.292 561.128 258.396C560.701 257.457 560.445 256.497 560.36 255.516L569 251.292C569.427 251.334 570.024 251.569 570.792 251.996C571.603 252.422 572.392 252.892 573.16 253.404C573.971 253.873 574.568 254.278 574.952 254.62L574.696 259.1C576.829 256.668 578.899 254.769 580.904 253.404C582.952 251.996 584.637 251.292 585.96 251.292C586.685 251.633 587.453 252.294 588.264 253.276C589.117 254.257 589.885 255.345 590.568 256.54C591.251 257.692 591.699 258.78 591.912 259.804C594.173 257.158 596.413 255.089 598.632 253.596C600.893 252.06 602.792 251.292 604.328 251.292C604.968 251.633 605.672 252.23 606.44 253.084C607.208 253.937 607.912 254.897 608.552 255.964C609.192 256.988 609.64 258.012 609.896 259.036L608.808 277.404L613.992 276.06Z" fill="#4A4A4A"/>
<path d="M664.038 227.224L642.438 225.112L641.574 251.992L641.862 283.192L636.486 284.536C634.822 283.704 633.126 282.584 631.398 281.176C629.67 279.704 628.262 277.944 627.174 275.896L631.686 250.744L630.918 225.592L615.75 227.896C614.15 226.872 612.774 225.816 611.622 224.728C610.47 223.64 609.254 222.264 607.974 220.6L609.798 215.032L637.446 215.8L658.086 214.264C660.134 215.672 661.766 216.984 662.982 218.2C664.198 219.352 665.222 220.536 666.054 221.752L664.038 227.224Z" fill="#4A4A4A"/>
<path d="M691.822 277.054C685.961 297.288 672.7 314.636 654.624 325.719C636.547 336.802 614.949 340.826 594.04 337.006C573.13 333.186 554.406 321.797 541.516 305.057C528.626 288.317 522.494 267.425 524.314 246.454C526.135 225.483 535.777 205.933 551.363 191.616C566.949 177.298 587.362 169.238 608.623 169.005C629.885 168.773 650.472 176.385 666.374 190.359C682.275 204.332 692.352 223.666 694.639 244.592L681.633 245.986C679.695 228.259 671.159 211.881 657.689 200.044C644.218 188.207 626.779 181.758 608.768 181.955C590.757 182.152 573.465 188.98 560.262 201.109C547.059 213.237 538.891 229.798 537.349 247.563C535.807 265.328 541.001 283.025 551.92 297.206C562.839 311.387 578.701 321.035 596.414 324.271C614.127 327.506 632.422 324.098 647.735 314.709C663.048 305.321 674.281 290.625 679.246 273.485L691.822 277.054Z" fill="#4A4A4A"/>
<path d="M566.184 382.306L557.424 371.346H557.344V382.086H556.464V368.846H557.944L565.564 378.466H565.644V368.846H566.524V382.306H566.184ZM572.897 382.326C572.15 382.326 571.47 382.152 570.857 381.806C570.243 381.459 569.757 380.952 569.397 380.286C569.037 379.606 568.857 378.786 568.857 377.826C568.857 376.879 569.003 376.086 569.297 375.446C569.603 374.806 569.997 374.292 570.477 373.906C570.97 373.519 571.497 373.239 572.057 373.066C572.617 372.892 573.157 372.806 573.677 372.806C574.437 372.806 575.123 372.979 575.737 373.326C576.35 373.672 576.837 374.179 577.197 374.846C577.557 375.512 577.737 376.332 577.737 377.306C577.737 378.252 577.583 379.046 577.277 379.686C576.97 380.326 576.57 380.839 576.077 381.226C575.597 381.612 575.077 381.892 574.517 382.066C573.957 382.239 573.417 382.326 572.897 382.326ZM573.277 381.646C573.743 381.646 574.143 381.519 574.477 381.266C574.81 381.012 575.077 380.686 575.277 380.286C575.49 379.872 575.643 379.432 575.737 378.966C575.843 378.499 575.897 378.046 575.897 377.606C575.897 376.872 575.803 376.206 575.617 375.606C575.443 374.992 575.143 374.499 574.717 374.126C574.303 373.752 573.73 373.566 572.997 373.566C572.197 373.872 571.61 374.406 571.237 375.166C570.863 375.926 570.677 376.739 570.677 377.606C570.677 378.312 570.763 378.979 570.937 379.606C571.11 380.219 571.383 380.712 571.757 381.086C572.143 381.459 572.65 381.646 573.277 381.646ZM587.877 382.326C587.13 382.326 586.45 382.152 585.837 381.806C585.223 381.459 584.737 380.952 584.377 380.286C584.017 379.619 583.837 378.806 583.837 377.846C583.837 376.819 584.023 375.932 584.397 375.186C584.783 374.426 585.303 373.839 585.957 373.426C586.623 373.012 587.37 372.806 588.197 372.806C588.637 372.806 589.083 372.872 589.537 373.006C590.003 373.126 590.35 373.232 590.577 373.326L590.377 374.646C589.75 374.312 589.17 374.079 588.637 373.946C588.117 373.799 587.69 373.726 587.357 373.726C586.85 373.979 586.45 374.346 586.157 374.826C585.877 375.306 585.677 375.806 585.557 376.326C585.45 376.832 585.397 377.286 585.397 377.686C585.397 378.366 585.537 378.972 585.817 379.506C586.097 380.039 586.47 380.459 586.937 380.766C587.403 381.072 587.917 381.226 588.477 381.226C588.943 381.226 589.357 381.172 589.717 381.066C590.077 380.959 590.403 380.832 590.697 380.686V381.386C590.323 381.626 589.897 381.846 589.417 382.046C588.95 382.232 588.437 382.326 587.877 382.326ZM596.022 382.326C595.275 382.326 594.595 382.152 593.982 381.806C593.368 381.459 592.882 380.952 592.522 380.286C592.162 379.606 591.982 378.786 591.982 377.826C591.982 376.879 592.128 376.086 592.422 375.446C592.728 374.806 593.122 374.292 593.602 373.906C594.095 373.519 594.622 373.239 595.182 373.066C595.742 372.892 596.282 372.806 596.802 372.806C597.562 372.806 598.248 372.979 598.862 373.326C599.475 373.672 599.962 374.179 600.322 374.846C600.682 375.512 600.862 376.332 600.862 377.306C600.862 378.252 600.708 379.046 600.402 379.686C600.095 380.326 599.695 380.839 599.202 381.226C598.722 381.612 598.202 381.892 597.642 382.066C597.082 382.239 596.542 382.326 596.022 382.326ZM596.402 381.646C596.868 381.646 597.268 381.519 597.602 381.266C597.935 381.012 598.202 380.686 598.402 380.286C598.615 379.872 598.768 379.432 598.862 378.966C598.968 378.499 599.022 378.046 599.022 377.606C599.022 376.872 598.928 376.206 598.742 375.606C598.568 374.992 598.268 374.499 597.842 374.126C597.428 373.752 596.855 373.566 596.122 373.566C595.322 373.872 594.735 374.406 594.362 375.166C593.988 375.926 593.802 376.739 593.802 377.606C593.802 378.312 593.888 378.979 594.062 379.606C594.235 380.219 594.508 380.712 594.882 381.086C595.268 381.459 595.775 381.646 596.402 381.646ZM604.802 382.326C604.215 382.326 603.662 382.239 603.142 382.066C602.635 381.892 602.255 381.739 602.002 381.606V380.846C602.162 380.926 602.382 381.019 602.662 381.126C602.955 381.232 603.268 381.326 603.602 381.406C603.948 381.486 604.275 381.526 604.582 381.526C605.288 381.526 605.795 381.366 606.102 381.046C606.408 380.726 606.562 380.399 606.562 380.066C606.562 379.666 606.415 379.326 606.122 379.046C605.828 378.766 605.462 378.512 605.022 378.286C604.595 378.046 604.162 377.792 603.722 377.526C603.282 377.259 602.915 376.946 602.622 376.586C602.328 376.212 602.182 375.752 602.182 375.206C602.182 374.846 602.268 374.486 602.442 374.126C602.628 373.752 602.922 373.439 603.322 373.186C603.735 372.932 604.288 372.806 604.982 372.806C605.688 372.806 606.268 372.872 606.722 373.006C607.188 373.126 607.535 373.232 607.762 373.326L607.562 374.646C607.028 374.352 606.522 374.126 606.042 373.966C605.562 373.806 605.155 373.699 604.822 373.646C604.462 373.646 604.175 373.779 603.962 374.046C603.748 374.312 603.642 374.592 603.642 374.886C603.642 375.272 603.795 375.606 604.102 375.886C604.408 376.152 604.788 376.406 605.242 376.646C605.695 376.886 606.142 377.139 606.582 377.406C607.035 377.672 607.415 377.986 607.722 378.346C608.028 378.706 608.182 379.159 608.182 379.706C608.182 380.426 607.888 381.046 607.302 381.566C606.728 382.072 605.895 382.326 604.802 382.326ZM612.643 382.326C612.096 382.326 611.636 382.166 611.263 381.846C610.89 381.526 610.703 380.986 610.703 380.226V373.766L609.083 373.446V373.046H610.703V372.326L612.383 371.106V373.046H614.763V373.766H612.383V380.326C612.383 380.699 612.456 380.992 612.603 381.206C612.763 381.419 613.056 381.526 613.483 381.526C613.67 381.526 613.876 381.499 614.103 381.446C614.33 381.379 614.55 381.306 614.763 381.226V381.786C614.47 381.919 614.136 382.039 613.763 382.146C613.403 382.266 613.03 382.326 612.643 382.326ZM616.725 384.926L616.485 384.546C616.872 384.239 617.192 383.872 617.445 383.446C617.698 383.019 617.825 382.592 617.825 382.166C617.545 382.166 617.265 382.072 616.985 381.886C616.718 381.699 616.585 381.426 616.585 381.066C616.772 380.786 617.072 380.539 617.485 380.326C617.898 380.099 618.298 379.966 618.685 379.926C618.792 380.219 618.865 380.499 618.905 380.766C618.945 381.032 618.965 381.286 618.965 381.526C618.965 382.352 618.745 383.039 618.305 383.586C617.865 384.132 617.338 384.579 616.725 384.926ZM626.672 382.086V368.426H628.352V382.086H626.672ZM634.44 382.326C633.693 382.326 633.013 382.152 632.4 381.806C631.786 381.459 631.3 380.952 630.94 380.286C630.58 379.606 630.4 378.786 630.4 377.826C630.4 376.879 630.546 376.086 630.84 375.446C631.146 374.806 631.54 374.292 632.02 373.906C632.513 373.519 633.04 373.239 633.6 373.066C634.16 372.892 634.7 372.806 635.22 372.806C635.98 372.806 636.666 372.979 637.28 373.326C637.893 373.672 638.38 374.179 638.74 374.846C639.1 375.512 639.28 376.332 639.28 377.306C639.28 378.252 639.126 379.046 638.82 379.686C638.513 380.326 638.113 380.839 637.62 381.226C637.14 381.612 636.62 381.892 636.06 382.066C635.5 382.239 634.96 382.326 634.44 382.326ZM634.82 381.646C635.286 381.646 635.686 381.519 636.02 381.266C636.353 381.012 636.62 380.686 636.82 380.286C637.033 379.872 637.186 379.432 637.28 378.966C637.386 378.499 637.44 378.046 637.44 377.606C637.44 376.872 637.346 376.206 637.16 375.606C636.986 374.992 636.686 374.499 636.26 374.126C635.846 373.752 635.273 373.566 634.54 373.566C633.74 373.872 633.153 374.406 632.78 375.166C632.406 375.926 632.22 376.739 632.22 377.606C632.22 378.312 632.306 378.979 632.48 379.606C632.653 380.219 632.926 380.712 633.3 381.086C633.686 381.459 634.193 381.646 634.82 381.646ZM643.96 382.346L640.06 373.046H641.9L644.56 380.106L646.36 375.186L645.46 373.046H647.3L649.96 380.106L652.56 373.046H653.34L649.68 382.346H649.36L646.72 376.106L644.26 382.346H643.96ZM663.091 382.326C662.345 382.326 661.665 382.152 661.051 381.806C660.438 381.459 659.951 380.952 659.591 380.286C659.231 379.619 659.051 378.806 659.051 377.846C659.051 376.819 659.238 375.932 659.611 375.186C659.998 374.426 660.518 373.839 661.171 373.426C661.838 373.012 662.585 372.806 663.411 372.806C663.851 372.806 664.298 372.872 664.751 373.006C665.218 373.126 665.565 373.232 665.791 373.326L665.591 374.646C664.965 374.312 664.385 374.079 663.851 373.946C663.331 373.799 662.905 373.726 662.571 373.726C662.065 373.979 661.665 374.346 661.371 374.826C661.091 375.306 660.891 375.806 660.771 376.326C660.665 376.832 660.611 377.286 660.611 377.686C660.611 378.366 660.751 378.972 661.031 379.506C661.311 380.039 661.685 380.459 662.151 380.766C662.618 381.072 663.131 381.226 663.691 381.226C664.158 381.226 664.571 381.172 664.931 381.066C665.291 380.959 665.618 380.832 665.911 380.686V381.386C665.538 381.626 665.111 381.846 664.631 382.046C664.165 382.232 663.651 382.326 663.091 382.326ZM671.236 382.326C670.49 382.326 669.81 382.152 669.196 381.806C668.583 381.459 668.096 380.952 667.736 380.286C667.376 379.606 667.196 378.786 667.196 377.826C667.196 376.879 667.343 376.086 667.636 375.446C667.943 374.806 668.336 374.292 668.816 373.906C669.31 373.519 669.836 373.239 670.396 373.066C670.956 372.892 671.496 372.806 672.016 372.806C672.776 372.806 673.463 372.979 674.076 373.326C674.69 373.672 675.176 374.179 675.536 374.846C675.896 375.512 676.076 376.332 676.076 377.306C676.076 378.252 675.923 379.046 675.616 379.686C675.31 380.326 674.91 380.839 674.416 381.226C673.936 381.612 673.416 381.892 672.856 382.066C672.296 382.239 671.756 382.326 671.236 382.326ZM671.616 381.646C672.083 381.646 672.483 381.519 672.816 381.266C673.15 381.012 673.416 380.686 673.616 380.286C673.83 379.872 673.983 379.432 674.076 378.966C674.183 378.499 674.236 378.046 674.236 377.606C674.236 376.872 674.143 376.206 673.956 375.606C673.783 374.992 673.483 374.499 673.056 374.126C672.643 373.752 672.07 373.566 671.336 373.566C670.536 373.872 669.95 374.406 669.576 375.166C669.203 375.926 669.016 376.739 669.016 377.606C669.016 378.312 669.103 378.979 669.276 379.606C669.45 380.219 669.723 380.712 670.096 381.086C670.483 381.459 670.99 381.646 671.616 381.646ZM680.016 382.326C679.43 382.326 678.876 382.239 678.356 382.066C677.85 381.892 677.47 381.739 677.216 381.606V380.846C677.376 380.926 677.596 381.019 677.876 381.126C678.17 381.232 678.483 381.326 678.816 381.406C679.163 381.486 679.49 381.526 679.796 381.526C680.503 381.526 681.01 381.366 681.316 381.046C681.623 380.726 681.776 380.399 681.776 380.066C681.776 379.666 681.63 379.326 681.336 379.046C681.043 378.766 680.676 378.512 680.236 378.286C679.81 378.046 679.376 377.792 678.936 377.526C678.496 377.259 678.13 376.946 677.836 376.586C677.543 376.212 677.396 375.752 677.396 375.206C677.396 374.846 677.483 374.486 677.656 374.126C677.843 373.752 678.136 373.439 678.536 373.186C678.95 372.932 679.503 372.806 680.196 372.806C680.903 372.806 681.483 372.872 681.936 373.006C682.403 373.126 682.75 373.232 682.976 373.326L682.776 374.646C682.243 374.352 681.736 374.126 681.256 373.966C680.776 373.806 680.37 373.699 680.036 373.646C679.676 373.646 679.39 373.779 679.176 374.046C678.963 374.312 678.856 374.592 678.856 374.886C678.856 375.272 679.01 375.606 679.316 375.886C679.623 376.152 680.003 376.406 680.456 376.646C680.91 376.886 681.356 377.139 681.796 377.406C682.25 377.672 682.63 377.986 682.936 378.346C683.243 378.706 683.396 379.159 683.396 379.706C683.396 380.426 683.103 381.046 682.516 381.566C681.943 382.072 681.11 382.326 680.016 382.326ZM687.858 382.326C687.311 382.326 686.851 382.166 686.478 381.846C686.105 381.526 685.918 380.986 685.918 380.226V373.766L684.298 373.446V373.046H685.918V372.326L687.598 371.106V373.046H689.978V373.766H687.598V380.326C687.598 380.699 687.671 380.992 687.818 381.206C687.978 381.419 688.271 381.526 688.698 381.526C688.885 381.526 689.091 381.499 689.318 381.446C689.545 381.379 689.765 381.306 689.978 381.226V381.786C689.685 381.919 689.351 382.039 688.978 382.146C688.618 382.266 688.245 382.326 687.858 382.326ZM699.44 382.326C698.893 382.326 698.433 382.166 698.06 381.846C697.687 381.526 697.5 380.986 697.5 380.226V373.766L695.88 373.446V373.046H697.5V372.326L699.18 371.106V373.046H701.56V373.766H699.18V380.326C699.18 380.699 699.253 380.992 699.4 381.206C699.56 381.419 699.853 381.526 700.28 381.526C700.467 381.526 700.673 381.499 700.9 381.446C701.127 381.379 701.347 381.306 701.56 381.226V381.786C701.267 381.919 700.933 382.039 700.56 382.146C700.2 382.266 699.827 382.326 699.44 382.326ZM705.642 382.326C705.335 382.326 704.995 382.246 704.622 382.086C704.262 381.939 703.949 381.652 703.682 381.226C703.415 380.786 703.282 380.159 703.282 379.346V373.046H704.982V379.446C704.982 380.059 705.089 380.539 705.302 380.886C705.529 381.219 705.935 381.386 706.522 381.386C706.829 381.386 707.155 381.266 707.502 381.026C707.849 380.786 708.182 380.479 708.502 380.106V373.046H710.202V379.406C710.202 379.859 710.262 380.232 710.382 380.526C710.515 380.806 710.662 381.032 710.822 381.206C710.995 381.366 711.135 381.492 711.242 381.586L710.202 382.326L708.582 380.866C708.089 381.332 707.622 381.692 707.182 381.946C706.742 382.199 706.229 382.326 705.642 382.326ZM713.371 382.086V373.046H715.031V382.086H713.371ZM714.191 371.266C713.898 371.266 713.651 371.159 713.451 370.946C713.265 370.732 713.171 370.492 713.171 370.226C713.171 369.932 713.265 369.686 713.451 369.486C713.651 369.286 713.898 369.186 714.191 369.186C714.471 369.186 714.711 369.286 714.911 369.486C715.125 369.686 715.231 369.932 715.231 370.226C715.231 370.492 715.125 370.732 714.911 370.946C714.711 371.159 714.471 371.266 714.191 371.266ZM720.299 382.326C719.753 382.326 719.293 382.166 718.919 381.846C718.546 381.526 718.359 380.986 718.359 380.226V373.766L716.739 373.446V373.046H718.359V372.326L720.039 371.106V373.046H722.419V373.766H720.039V380.326C720.039 380.699 720.113 380.992 720.259 381.206C720.419 381.419 720.713 381.526 721.139 381.526C721.326 381.526 721.533 381.499 721.759 381.446C721.986 381.379 722.206 381.306 722.419 381.226V381.786C722.126 381.919 721.793 382.039 721.419 382.146C721.059 382.266 720.686 382.326 720.299 382.326ZM724.621 382.086V373.046H726.281V382.086H724.621ZM725.441 371.266C725.148 371.266 724.901 371.159 724.701 370.946C724.515 370.732 724.421 370.492 724.421 370.226C724.421 369.932 724.515 369.686 724.701 369.486C724.901 369.286 725.148 369.186 725.441 369.186C725.721 369.186 725.961 369.286 726.161 369.486C726.375 369.686 726.481 369.932 726.481 370.226C726.481 370.492 726.375 370.732 726.161 370.946C725.961 371.159 725.721 371.266 725.441 371.266ZM732.369 382.326C731.623 382.326 730.943 382.152 730.329 381.806C729.716 381.459 729.229 380.952 728.869 380.286C728.509 379.606 728.329 378.786 728.329 377.826C728.329 376.879 728.476 376.086 728.769 375.446C729.076 374.806 729.469 374.292 729.949 373.906C730.443 373.519 730.969 373.239 731.529 373.066C732.089 372.892 732.629 372.806 733.149 372.806C733.909 372.806 734.596 372.979 735.209 373.326C735.823 373.672 736.309 374.179 736.669 374.846C737.029 375.512 737.209 376.332 737.209 377.306C737.209 378.252 737.056 379.046 736.749 379.686C736.443 380.326 736.043 380.839 735.549 381.226C735.069 381.612 734.549 381.892 733.989 382.066C733.429 382.239 732.889 382.326 732.369 382.326ZM732.749 381.646C733.216 381.646 733.616 381.519 733.949 381.266C734.283 381.012 734.549 380.686 734.749 380.286C734.963 379.872 735.116 379.432 735.209 378.966C735.316 378.499 735.369 378.046 735.369 377.606C735.369 376.872 735.276 376.206 735.089 375.606C734.916 374.992 734.616 374.499 734.189 374.126C733.776 373.752 733.203 373.566 732.469 373.566C731.669 373.872 731.083 374.406 730.709 375.166C730.336 375.926 730.149 376.739 730.149 377.606C730.149 378.312 730.236 378.979 730.409 379.606C730.583 380.219 730.856 380.712 731.229 381.086C731.616 381.459 732.123 381.646 732.749 381.646ZM739.389 382.086V375.806C739.389 375.339 739.323 374.966 739.189 374.686C739.069 374.392 738.929 374.166 738.769 374.006C738.609 373.832 738.476 373.706 738.369 373.626L739.389 372.866L741.029 374.326C741.523 373.859 741.983 373.492 742.409 373.226C742.849 372.946 743.363 372.806 743.949 372.806C744.256 372.806 744.589 372.886 744.949 373.046C745.323 373.206 745.643 373.506 745.909 373.946C746.176 374.372 746.309 374.999 746.309 375.826V382.086H744.609V376.026C744.609 375.399 744.496 374.919 744.269 374.586C744.056 374.239 743.656 374.066 743.069 374.066C742.496 374.066 741.836 374.439 741.089 375.186V382.086H739.389Z" fill="#4A4A4A"/>
<path d="M547 357H775.526" stroke="#323232" stroke-opacity="0.67" stroke-dasharray="2 2"/>
<defs>
<filter id="filter0_d_66_31" x="0" y="0" width="944.853" height="479.545" filterUnits="userSpaceOnUse" color-interpolation-filters="sRGB">
<feFlood flood-opacity="0" result="BackgroundImageFix"/>
<feColorMatrix in="SourceAlpha" type="matrix" values="0 0 0 0 0 0 0 0 0 0 0 0 0 0 0 0 0 0 127 0" result="hardAlpha"/>
<feOffset dy="4"/>
<feGaussianBlur stdDeviation="5"/>
<feComposite in2="hardAlpha" operator="out"/>
<feColorMatrix type="matrix" values="0 0 0 0 0 0 0 0 0 0 0 0 0 0 0 0 0 0 0.25 0"/>
<feBlend mode="normal" in2="BackgroundImageFix" result="effect1_dropShadow_66_31"/>
<feBlend mode="normal" in="SourceGraphic" in2="effect1_dropShadow_66_31" result="shape"/>
</filter>
<linearGradient id="paint0_linear_66_31" x1="440.915" y1="33.3901" x2="440.915" y2="398.591" gradientUnits="userSpaceOnUse">
<stop offset="0.06" stop-color="#5F5F5F"/>
<stop offset="0.505" stop-color="#4D4D4D"/>
<stop offset="1" stop-color="#6C7172"/>
</linearGradient>
<linearGradient id="paint1_linear_66_31" x1="493.178" y1="445.77" x2="938.911" y2="445.77" gradientUnits="userSpaceOnUse">
<stop stop-color="#6C7172"/>
<stop offset="1" stop-color="#CDD6D8"/>
</linearGradient>
</defs>
</svg>
