<svg width="335" height="111" viewBox="0 0 335 111" fill="none" xmlns="http://www.w3.org/2000/svg">
<path d="M11 105.869L132 108L130.77 91.1148L56.9898 88L11 105.869Z" fill="black" fill-opacity="0.5"/>
<path d="M0 84.8355C34.7173 91.7065 111.752 89.4042 126.945 105.474L114.533 90.013C98.3085 66.0752 63.0282 70.2253 31.642 63.4072L0 84.8355Z" fill="#FF697C"/>
<path d="M3.03271 63.1635C35.7432 71.5151 112.759 86.4213 127.074 105.953L115.252 86.4846C99.9653 57.3886 47.39 47.4109 35.0619 39.6655L3.03271 63.1635Z" fill="#FF8F7D"/>
<path d="M11.866 46.8489C44.5824 57.9018 112.647 76.3963 126.964 102.246L115.25 75.9085C99.9602 37.4016 60.5854 30.1925 48.2551 19.9418L11.866 46.8489Z" fill="#F1CF38"/>
<path d="M22.0168 30.8994C52.1346 42.8679 113.783 78.1508 126.963 106.142L116.179 77.6227C102.104 35.9259 63.6913 24.2235 52.3404 13.1237L22.0168 30.8994Z" fill="#00BF92"/>
<path d="M120.95 95.4528C122.589 98.115 123.991 100.713 125.118 103.22L120.95 95.4528C103.532 67.158 59.2913 31.5786 31.9062 20.1854L63.0118 0.705139C74.3039 12.2656 106.578 51.3359 120.58 94.7629L120.95 95.4528Z" fill="#48A2B5"/>
<path d="M51.0834 13.3563C80.5812 26.7868 112.356 73.876 126.871 102.468C127.353 103.416 128.809 103.059 128.809 101.995V93.5745C128.809 93.4939 128.799 93.414 128.78 93.3358C118.103 50.1344 87.29 5.24775 75.8685 3.41237C75.7254 3.38938 75.5914 3.40709 75.4536 3.45219L51.1708 11.4027C50.2787 11.6948 50.2291 12.9673 51.0834 13.3563Z" fill="#DBE9EC"/>
<path d="M85.8286 0.21814L98.9497 4.33411C100.57 4.89882 100.827 5.85896 101.386 6.79272C111.798 34.0392 128.635 85.4193 131.68 90.0727C134.87 94.9462 136.113 94.8164 136.851 94.4538L231.382 95.306C237.264 102.703 239.013 108.771 237.315 108.699C203.424 107.683 134.87 107.391 131.68 107.043C128.491 106.695 124.371 103.313 122.956 99.7126L85.8286 0.21814Z" fill="#F4F4F4"/>
<path d="M92.9487 6.79279L100.25 9.06701L128.81 88.8716L124.3 94.4538L92.9487 6.79279Z" fill="url(#paint0_linear_66_27)"/>
<path d="M236.965 106.874C203.131 105.876 136.021 103.823 132.681 103.823C129.648 103.823 125.486 103.006 124.333 102.026C125.632 107.199 130.542 107.801 132.022 107.815C165.344 108.946 233.487 111.045 235.596 110.406C237.705 109.768 238.334 108.458 237.786 107.849L236.965 106.874Z" fill="url(#paint1_linear_66_27)"/>
<path d="M150.952 61L152.284 37.168H155.632L163.948 55.348L171.904 37.168H175.576L176.908 61H173.236L172.264 40.516H172.12L163.048 61H162.544L153.652 41.344H153.508L152.536 61H150.952ZM188.74 61.432C187.252 61.432 185.908 61.12 184.708 60.496C183.532 59.872 182.608 58.96 181.936 57.76C181.264 56.56 180.928 55.096 180.928 53.368C180.928 51.376 181.312 49.708 182.08 48.364C182.848 47.02 183.856 46.012 185.104 45.34C186.352 44.644 187.684 44.296 189.1 44.296C190.228 44.296 191.248 44.596 192.16 45.196C193.096 45.772 193.84 46.648 194.392 47.824C194.968 48.976 195.256 50.416 195.256 52.144H183.772C183.772 54.016 184.06 55.492 184.636 56.572C185.236 57.628 186.004 58.372 186.94 58.804C187.9 59.236 188.896 59.452 189.928 59.452C190.864 59.452 191.692 59.356 192.412 59.164C193.132 58.972 193.792 58.744 194.392 58.48V59.74C193.648 60.172 192.796 60.568 191.836 60.928C190.876 61.264 189.844 61.432 188.74 61.432ZM183.916 51.064H192.34C192.268 49.984 192.028 49.108 191.62 48.436C191.236 47.764 190.768 47.26 190.216 46.924C189.688 46.564 189.148 46.324 188.596 46.204C188.068 46.06 187.624 45.988 187.264 45.988C186.448 46.372 185.728 47.02 185.104 47.932C184.504 48.82 184.108 49.864 183.916 51.064ZM199.171 61V44.728H201.259L202.087 47.752C202.399 47.224 202.831 46.696 203.383 46.168C203.959 45.64 204.607 45.184 205.327 44.8C206.071 44.392 206.827 44.128 207.595 44.008L207.955 46.492C207.331 46.492 206.659 46.624 205.939 46.888C205.219 47.152 204.523 47.488 203.851 47.896C203.203 48.304 202.651 48.724 202.195 49.156V61H199.171ZM216.572 61.432C215.228 61.432 214.004 61.12 212.9 60.496C211.796 59.872 210.92 58.96 210.272 57.76C209.624 56.536 209.3 55.06 209.3 53.332C209.3 51.628 209.564 50.2 210.092 49.048C210.644 47.896 211.352 46.972 212.216 46.276C213.104 45.58 214.052 45.076 215.06 44.764C216.068 44.452 217.04 44.296 217.976 44.296C219.344 44.296 220.58 44.608 221.684 45.232C222.788 45.856 223.664 46.768 224.312 47.968C224.96 49.168 225.284 50.644 225.284 52.396C225.284 54.1 225.008 55.528 224.456 56.68C223.904 57.832 223.184 58.756 222.296 59.452C221.432 60.148 220.496 60.652 219.488 60.964C218.48 61.276 217.508 61.432 216.572 61.432ZM217.256 60.208C218.096 60.208 218.816 59.98 219.416 59.524C220.016 59.068 220.496 58.48 220.856 57.76C221.24 57.016 221.516 56.224 221.684 55.384C221.876 54.544 221.972 53.728 221.972 52.936C221.972 51.616 221.804 50.416 221.468 49.336C221.156 48.232 220.616 47.344 219.848 46.672C219.104 46 218.072 45.664 216.752 45.664C215.312 46.216 214.256 47.176 213.584 48.544C212.912 49.912 212.576 51.376 212.576 52.936C212.576 54.208 212.732 55.408 213.044 56.536C213.356 57.64 213.848 58.528 214.52 59.2C215.216 59.872 216.128 60.208 217.256 60.208ZM234.212 61V38.896C233.828 38.8 233.444 38.728 233.06 38.68C232.676 38.632 232.244 38.608 231.764 38.608L226.904 39.724L226.688 37.168H245.228L245.048 39.724L240.152 38.608C239.672 38.608 239.24 38.632 238.856 38.68C238.472 38.728 238.088 38.8 237.704 38.896V61H234.212ZM248.619 61.432C248.067 61.432 247.455 61.288 246.783 61C246.135 60.736 245.571 60.22 245.091 59.452C244.611 58.66 244.371 57.532 244.371 56.068V44.728H247.431V56.248C247.431 57.352 247.623 58.216 248.007 58.84C248.415 59.44 249.147 59.74 250.203 59.74C250.755 59.74 251.343 59.524 251.967 59.092C252.591 58.66 253.191 58.108 253.767 57.436V44.728H256.827V56.176C256.827 56.992 256.935 57.664 257.151 58.192C257.391 58.696 257.655 59.104 257.943 59.416C258.255 59.704 258.507 59.932 258.699 60.1L256.827 61.432L253.911 58.804C253.023 59.644 252.183 60.292 251.391 60.748C250.599 61.204 249.675 61.432 248.619 61.432ZM262.532 61V44.728H265.52V61H262.532ZM264.008 41.524C263.48 41.524 263.036 41.332 262.676 40.948C262.34 40.564 262.172 40.132 262.172 39.652C262.172 39.124 262.34 38.68 262.676 38.32C263.036 37.96 263.48 37.78 264.008 37.78C264.512 37.78 264.944 37.96 265.304 38.32C265.688 38.68 265.88 39.124 265.88 39.652C265.88 40.132 265.688 40.564 265.304 40.948C264.944 41.332 264.512 41.524 264.008 41.524ZM275.002 61.432C274.018 61.432 273.19 61.144 272.518 60.568C271.846 59.992 271.51 59.02 271.51 57.652V46.024L268.594 45.448V44.728H271.51V43.432L274.534 41.236V44.728H278.818V46.024H274.534V57.832C274.534 58.504 274.666 59.032 274.93 59.416C275.218 59.8 275.746 59.992 276.514 59.992C276.85 59.992 277.222 59.944 277.63 59.848C278.038 59.728 278.434 59.596 278.818 59.452V60.46C278.29 60.7 277.69 60.916 277.018 61.108C276.37 61.324 275.698 61.432 275.002 61.432ZM282.782 61V44.728H285.77V61H282.782ZM284.258 41.524C283.73 41.524 283.286 41.332 282.926 40.948C282.59 40.564 282.422 40.132 282.422 39.652C282.422 39.124 282.59 38.68 282.926 38.32C283.286 37.96 283.73 37.78 284.258 37.78C284.762 37.78 285.194 37.96 285.554 38.32C285.938 38.68 286.13 39.124 286.13 39.652C286.13 40.132 285.938 40.564 285.554 40.948C285.194 41.332 284.762 41.524 284.258 41.524ZM296.728 61.432C295.384 61.432 294.16 61.12 293.056 60.496C291.952 59.872 291.076 58.96 290.428 57.76C289.78 56.536 289.456 55.06 289.456 53.332C289.456 51.628 289.72 50.2 290.248 49.048C290.8 47.896 291.508 46.972 292.372 46.276C293.26 45.58 294.208 45.076 295.216 44.764C296.224 44.452 297.196 44.296 298.132 44.296C299.5 44.296 300.736 44.608 301.84 45.232C302.944 45.856 303.82 46.768 304.468 47.968C305.116 49.168 305.44 50.644 305.44 52.396C305.44 54.1 305.164 55.528 304.612 56.68C304.06 57.832 303.34 58.756 302.452 59.452C301.588 60.148 300.652 60.652 299.644 60.964C298.636 61.276 297.664 61.432 296.728 61.432ZM297.412 60.208C298.252 60.208 298.972 59.98 299.572 59.524C300.172 59.068 300.652 58.48 301.012 57.76C301.396 57.016 301.672 56.224 301.84 55.384C302.032 54.544 302.128 53.728 302.128 52.936C302.128 51.616 301.96 50.416 301.624 49.336C301.312 48.232 300.772 47.344 300.004 46.672C299.26 46 298.228 45.664 296.908 45.664C295.468 46.216 294.412 47.176 293.74 48.544C293.068 49.912 292.732 51.376 292.732 52.936C292.732 54.208 292.888 55.408 293.2 56.536C293.512 57.64 294.004 58.528 294.676 59.2C295.372 59.872 296.284 60.208 297.412 60.208ZM309.364 61V49.696C309.364 48.856 309.244 48.184 309.004 47.68C308.788 47.152 308.536 46.744 308.248 46.456C307.96 46.144 307.72 45.916 307.528 45.772L309.364 44.404L312.316 47.032C313.204 46.192 314.032 45.532 314.8 45.052C315.592 44.548 316.516 44.296 317.572 44.296C318.124 44.296 318.724 44.44 319.372 44.728C320.044 45.016 320.62 45.556 321.1 46.348C321.58 47.116 321.82 48.244 321.82 49.732V61H318.76V50.092C318.76 48.964 318.556 48.1 318.148 47.5C317.764 46.876 317.044 46.564 315.988 46.564C314.956 46.564 313.768 47.236 312.424 48.58V61H309.364Z" fill="#4A4A4A"/>
<defs>
<linearGradient id="paint0_linear_66_27" x1="110.879" y1="6.79279" x2="110.879" y2="94.4538" gradientUnits="userSpaceOnUse">
<stop offset="0.06" stop-color="#5F5F5F"/>
<stop offset="0.505" stop-color="#4D4D4D"/>
<stop offset="1" stop-color="#6C7172"/>
</linearGradient>
<linearGradient id="paint1_linear_66_27" x1="124.326" y1="105.778" x2="239.018" y2="105.778" gradientUnits="userSpaceOnUse">
<stop stop-color="#6C7172"/>
<stop offset="1" stop-color="#CDD6D8"/>
</linearGradient>
</defs>
</svg>
