<svg width="507" height="111" viewBox="0 0 507 111" fill="none" xmlns="http://www.w3.org/2000/svg">
<path d="M11 105.869L132 108L130.77 91.1148L56.9898 88L11 105.869Z" fill="black" fill-opacity="0.5"/>
<path d="M0 84.8355C34.7173 91.7065 111.752 89.4042 126.945 105.474L114.533 90.013C98.3085 66.0752 63.0282 70.2253 31.642 63.4072L0 84.8355Z" fill="#FF697C"/>
<path d="M3.03271 63.1635C35.7432 71.5151 112.759 86.4213 127.074 105.953L115.252 86.4846C99.9653 57.3886 47.39 47.4109 35.0619 39.6655L3.03271 63.1635Z" fill="#FF8F7D"/>
<path d="M11.866 46.8489C44.5824 57.9018 112.647 76.3963 126.964 102.246L115.25 75.9085C99.9602 37.4016 60.5854 30.1925 48.2551 19.9418L11.866 46.8489Z" fill="#F1CF38"/>
<path d="M22.0168 30.8994C52.1346 42.8679 113.783 78.1508 126.963 106.142L116.179 77.6227C102.104 35.9259 63.6913 24.2235 52.3404 13.1237L22.0168 30.8994Z" fill="#00BF92"/>
<path d="M120.95 95.4528C122.589 98.115 123.991 100.713 125.118 103.22L120.95 95.4528C103.532 67.158 59.2913 31.5786 31.9062 20.1854L63.0118 0.705139C74.3039 12.2656 106.578 51.3359 120.58 94.7629L120.95 95.4528Z" fill="#48A2B5"/>
<path d="M51.0834 13.3563C80.5812 26.7868 112.356 73.876 126.871 102.468C127.353 103.416 128.809 103.059 128.809 101.995V93.5745C128.809 93.4939 128.799 93.414 128.78 93.3358C118.103 50.1344 87.29 5.24775 75.8685 3.41237C75.7254 3.38938 75.5914 3.40709 75.4536 3.45219L51.1708 11.4027C50.2787 11.6948 50.2291 12.9673 51.0834 13.3563Z" fill="#DBE9EC"/>
<path d="M85.8286 0.21814L98.9497 4.33411C100.57 4.89882 100.827 5.85896 101.386 6.79272C111.798 34.0392 128.635 85.4193 131.68 90.0727C134.87 94.9462 136.113 94.8164 136.851 94.4538L231.382 95.306C237.264 102.703 239.013 108.771 237.315 108.699C203.424 107.683 134.87 107.391 131.68 107.043C128.491 106.695 124.371 103.313 122.956 99.7126L85.8286 0.21814Z" fill="#F4F4F4"/>
<path d="M92.9487 6.79279L100.25 9.06701L128.81 88.8716L124.3 94.4538L92.9487 6.79279Z" fill="url(#paint0_linear_66_27)"/>
<path d="M236.965 106.874C203.131 105.876 136.021 103.823 132.681 103.823C129.648 103.823 125.486 103.006 124.333 102.026C125.632 107.199 130.542 107.801 132.022 107.815C165.344 108.946 233.487 111.045 235.596 110.406C237.705 109.768 238.334 108.458 237.786 107.849L236.965 106.874Z" fill="url(#paint1_linear_66_27)"/>
<path d="M157.144 62H151.78C151.324 62 150.988 61.904 150.772 61.712C150.58 61.496 150.484 61.16 150.484 60.704V37.376C150.484 36.92 150.58 36.596 150.772 36.404C150.988 36.188 151.324 36.08 151.78 36.08H157.576C157.96 36.08 158.272 36.164 158.512 36.332C158.776 36.5 159.016 36.776 159.232 37.16L162.472 43.028C162.592 43.244 162.688 43.4 162.76 43.496C162.856 43.592 162.976 43.64 163.12 43.64H163.444C163.588 43.64 163.696 43.592 163.768 43.496C163.864 43.4 163.972 43.244 164.092 43.028L167.296 37.16C167.512 36.776 167.74 36.5 167.98 36.332C168.244 36.164 168.568 36.08 168.952 36.08H174.784C175.24 36.08 175.564 36.188 175.756 36.404C175.972 36.596 176.08 36.92 176.08 37.376V60.704C176.08 61.16 175.972 61.496 175.756 61.712C175.564 61.904 175.24 62 174.784 62H169.24C168.784 62 168.448 61.904 168.232 61.712C168.04 61.496 167.944 61.16 167.944 60.704V48.032L165.82 51.956C165.604 52.364 165.34 52.664 165.028 52.856C164.74 53.024 164.368 53.108 163.912 53.108H162.472C162.016 53.108 161.632 53.024 161.32 52.856C161.032 52.664 160.78 52.364 160.564 51.956L158.44 48.032V60.704C158.44 61.16 158.332 61.496 158.116 61.712C157.924 61.904 157.6 62 157.144 62ZM199.035 62H182.331C181.875 62 181.539 61.904 181.323 61.712C181.131 61.496 181.035 61.16 181.035 60.704V37.376C181.035 36.92 181.131 36.596 181.323 36.404C181.539 36.188 181.875 36.08 182.331 36.08H199.035C199.491 36.08 199.815 36.188 200.007 36.404C200.223 36.596 200.331 36.92 200.331 37.376V41.588C200.331 42.044 200.223 42.38 200.007 42.596C199.815 42.788 199.491 42.884 199.035 42.884H189.099V45.656H196.119C196.575 45.656 196.899 45.764 197.091 45.98C197.307 46.172 197.415 46.496 197.415 46.952V50.804C197.415 51.26 197.307 51.596 197.091 51.812C196.899 52.004 196.575 52.1 196.119 52.1H189.099V55.196H199.035C199.491 55.196 199.815 55.304 200.007 55.52C200.223 55.712 200.331 56.036 200.331 56.492V60.704C200.331 61.16 200.223 61.496 200.007 61.712C199.815 61.904 199.491 62 199.035 62ZM212.725 42.56V47.168H215.425C216.049 47.168 216.469 47.012 216.685 46.7C216.901 46.364 217.009 45.956 217.009 45.476V44.252C217.009 43.772 216.901 43.376 216.685 43.064C216.469 42.728 216.049 42.56 215.425 42.56H212.725ZM211.429 62H205.885C205.429 62 205.093 61.904 204.877 61.712C204.685 61.496 204.589 61.16 204.589 60.704V37.376C204.589 36.92 204.685 36.596 204.877 36.404C205.093 36.188 205.429 36.08 205.885 36.08H217.873C220.561 36.08 222.409 36.644 223.417 37.772C224.449 38.876 224.965 40.316 224.965 42.092V43.748C224.965 44.756 224.809 45.62 224.497 46.34C224.209 47.036 223.693 47.54 222.949 47.852C224.245 47.996 225.289 48.524 226.081 49.436C226.897 50.348 227.305 51.56 227.305 53.072V60.704C227.305 61.16 227.197 61.496 226.981 61.712C226.789 61.904 226.465 62 226.009 62H220.429C219.973 62 219.637 61.904 219.421 61.712C219.229 61.496 219.133 61.16 219.133 60.704V55.196C219.133 54.668 219.025 54.284 218.809 54.044C218.617 53.78 218.269 53.648 217.765 53.648H212.725V60.704C212.725 61.16 212.617 61.496 212.401 61.712C212.209 61.904 211.885 62 211.429 62ZM253.128 55.196C253.128 56.3 252.96 57.308 252.624 58.22C252.312 59.108 251.736 59.876 250.896 60.524C250.08 61.148 248.94 61.64 247.476 62C246.036 62.36 244.2 62.54 241.968 62.54C239.736 62.54 237.888 62.36 236.424 62C234.96 61.64 233.808 61.148 232.968 60.524C232.152 59.876 231.576 59.108 231.24 58.22C230.928 57.308 230.772 56.3 230.772 55.196V42.92C230.772 41.816 230.928 40.82 231.24 39.932C231.576 39.02 232.152 38.24 232.968 37.592C233.808 36.944 234.96 36.44 236.424 36.08C237.888 35.72 239.736 35.54 241.968 35.54C244.2 35.54 246.036 35.72 247.476 36.08C248.94 36.44 250.08 36.944 250.896 37.592C251.736 38.24 252.312 39.02 252.624 39.932C252.96 40.82 253.128 41.816 253.128 42.92V55.196ZM238.944 53.9C238.944 54.38 239.124 54.788 239.484 55.124C239.844 55.436 240.672 55.592 241.968 55.592C243.264 55.592 244.092 55.436 244.452 55.124C244.812 54.788 244.992 54.38 244.992 53.9V44.216C244.992 43.76 244.812 43.376 244.452 43.064C244.092 42.728 243.264 42.56 241.968 42.56C240.672 42.56 239.844 42.728 239.484 43.064C239.124 43.376 238.944 43.76 238.944 44.216V53.9ZM269.775 62H263.943C263.487 62 263.151 61.904 262.935 61.712C262.743 61.496 262.647 61.16 262.647 60.704V43.028H257.355C256.899 43.028 256.563 42.932 256.347 42.74C256.155 42.524 256.059 42.188 256.059 41.732V37.376C256.059 36.92 256.155 36.596 256.347 36.404C256.563 36.188 256.899 36.08 257.355 36.08H276.363C276.819 36.08 277.143 36.188 277.335 36.404C277.551 36.596 277.659 36.92 277.659 37.376V41.732C277.659 42.188 277.551 42.524 277.335 42.74C277.143 42.932 276.819 43.028 276.363 43.028H271.071V60.704C271.071 61.16 270.963 61.496 270.747 61.712C270.555 61.904 270.231 62 269.775 62ZM303.228 55.196C303.228 56.3 303.06 57.308 302.724 58.22C302.412 59.108 301.836 59.876 300.996 60.524C300.18 61.148 299.052 61.64 297.612 62C296.172 62.36 294.336 62.54 292.104 62.54C289.872 62.54 288.036 62.36 286.596 62C285.156 61.64 284.016 61.148 283.176 60.524C282.36 59.876 281.784 59.108 281.448 58.22C281.136 57.308 280.98 56.3 280.98 55.196V37.376C280.98 36.92 281.076 36.596 281.268 36.404C281.484 36.188 281.82 36.08 282.276 36.08H287.928C288.384 36.08 288.708 36.188 288.9 36.404C289.116 36.596 289.224 36.92 289.224 37.376V53.792C289.224 54.272 289.404 54.68 289.764 55.016C290.124 55.328 290.928 55.484 292.176 55.484C293.448 55.484 294.264 55.328 294.624 55.016C294.984 54.68 295.164 54.272 295.164 53.792V37.376C295.164 36.92 295.26 36.596 295.452 36.404C295.668 36.188 296.004 36.08 296.46 36.08H301.932C302.388 36.08 302.712 36.188 302.904 36.404C303.12 36.596 303.228 36.92 303.228 37.376V55.196ZM308.739 62C308.283 62 307.947 61.904 307.731 61.712C307.539 61.496 307.443 61.16 307.443 60.704V56.42C307.443 55.964 307.539 55.64 307.731 55.448C307.947 55.232 308.283 55.124 308.739 55.124H312.303V43.028H308.739C308.283 43.028 307.947 42.932 307.731 42.74C307.539 42.524 307.443 42.188 307.443 41.732V37.376C307.443 36.92 307.539 36.596 307.731 36.404C307.947 36.188 308.283 36.08 308.739 36.08H324.075C324.531 36.08 324.855 36.188 325.047 36.404C325.263 36.596 325.371 36.92 325.371 37.376V41.732C325.371 42.188 325.263 42.524 325.047 42.74C324.855 42.932 324.531 43.028 324.075 43.028H320.583V55.124H324.075C324.531 55.124 324.855 55.232 325.047 55.448C325.263 55.64 325.371 55.964 325.371 56.42V60.704C325.371 61.16 325.263 61.496 325.047 61.712C324.855 61.904 324.531 62 324.075 62H308.739ZM342.056 62H336.224C335.768 62 335.432 61.904 335.216 61.712C335.024 61.496 334.928 61.16 334.928 60.704V43.028H329.636C329.18 43.028 328.844 42.932 328.628 42.74C328.436 42.524 328.34 42.188 328.34 41.732V37.376C328.34 36.92 328.436 36.596 328.628 36.404C328.844 36.188 329.18 36.08 329.636 36.08H348.644C349.1 36.08 349.424 36.188 349.616 36.404C349.832 36.596 349.94 36.92 349.94 37.376V41.732C349.94 42.188 349.832 42.524 349.616 42.74C349.424 42.932 349.1 43.028 348.644 43.028H343.352V60.704C343.352 61.16 343.244 61.496 343.028 61.712C342.836 61.904 342.512 62 342.056 62ZM354.161 62C353.705 62 353.369 61.904 353.153 61.712C352.961 61.496 352.865 61.16 352.865 60.704V56.42C352.865 55.964 352.961 55.64 353.153 55.448C353.369 55.232 353.705 55.124 354.161 55.124H357.725V43.028H354.161C353.705 43.028 353.369 42.932 353.153 42.74C352.961 42.524 352.865 42.188 352.865 41.732V37.376C352.865 36.92 352.961 36.596 353.153 36.404C353.369 36.188 353.705 36.08 354.161 36.08H369.497C369.953 36.08 370.277 36.188 370.469 36.404C370.685 36.596 370.793 36.92 370.793 37.376V41.732C370.793 42.188 370.685 42.524 370.469 42.74C370.277 42.932 369.953 43.028 369.497 43.028H366.005V55.124H369.497C369.953 55.124 370.277 55.232 370.469 55.448C370.685 55.64 370.793 55.964 370.793 56.42V60.704C370.793 61.16 370.685 61.496 370.469 61.712C370.277 61.904 369.953 62 369.497 62H354.161ZM397.198 55.196C397.198 56.3 397.03 57.308 396.694 58.22C396.382 59.108 395.806 59.876 394.966 60.524C394.15 61.148 393.01 61.64 391.546 62C390.106 62.36 388.27 62.54 386.038 62.54C383.806 62.54 381.958 62.36 380.494 62C379.03 61.64 377.878 61.148 377.038 60.524C376.222 59.876 375.646 59.108 375.31 58.22C374.998 57.308 374.842 56.3 374.842 55.196V42.92C374.842 41.816 374.998 40.82 375.31 39.932C375.646 39.02 376.222 38.24 377.038 37.592C377.878 36.944 379.03 36.44 380.494 36.08C381.958 35.72 383.806 35.54 386.038 35.54C388.27 35.54 390.106 35.72 391.546 36.08C393.01 36.44 394.15 36.944 394.966 37.592C395.806 38.24 396.382 39.02 396.694 39.932C397.03 40.82 397.198 41.816 397.198 42.92V55.196ZM383.014 53.9C383.014 54.38 383.194 54.788 383.554 55.124C383.914 55.436 384.742 55.592 386.038 55.592C387.334 55.592 388.162 55.436 388.522 55.124C388.882 54.788 389.062 54.38 389.062 53.9V44.216C389.062 43.76 388.882 43.376 388.522 43.064C388.162 42.728 387.334 42.56 386.038 42.56C384.742 42.56 383.914 42.728 383.554 43.064C383.194 43.376 383.014 43.76 383.014 44.216V53.9ZM408.477 62H403.077C402.621 62 402.285 61.904 402.069 61.712C401.877 61.496 401.781 61.16 401.781 60.704V37.376C401.781 36.92 401.877 36.596 402.069 36.404C402.285 36.188 402.621 36.08 403.077 36.08H406.821C407.277 36.08 407.661 36.152 407.973 36.296C408.309 36.44 408.633 36.692 408.945 37.052L415.929 45.044V37.376C415.929 36.92 416.025 36.596 416.217 36.404C416.433 36.188 416.769 36.08 417.225 36.08H422.625C423.081 36.08 423.405 36.188 423.597 36.404C423.813 36.596 423.921 36.92 423.921 37.376V60.704C423.921 61.16 423.813 61.496 423.597 61.712C423.405 61.904 423.081 62 422.625 62H417.225C416.769 62 416.433 61.904 416.217 61.712C416.025 61.496 415.929 61.16 415.929 60.704V56.276L409.773 48.824V60.704C409.773 61.16 409.665 61.496 409.449 61.712C409.257 61.904 408.933 62 408.477 62Z" fill="#4A4A4A"/>
<defs>
<linearGradient id="paint0_linear_66_27" x1="110.879" y1="6.79279" x2="110.879" y2="94.4538" gradientUnits="userSpaceOnUse">
<stop offset="0.06" stop-color="#5F5F5F"/>
<stop offset="0.505" stop-color="#4D4D4D"/>
<stop offset="1" stop-color="#6C7172"/>
</linearGradient>
<linearGradient id="paint1_linear_66_27" x1="124.326" y1="105.778" x2="239.018" y2="105.778" gradientUnits="userSpaceOnUse">
<stop stop-color="#6C7172"/>
<stop offset="1" stop-color="#CDD6D8"/>
</linearGradient>
</defs>
</svg>
