<svg width="969" height="453" viewBox="0 0 969 453" fill="none" xmlns="http://www.w3.org/2000/svg">
<path d="M0 436H544L529.64 330H310.857L0 436Z" fill="black" fill-opacity="0.31"/>
<path d="M22 355.492C153.663 383.709 490.384 370.008 548 436L500.859 368.762C439.328 270.457 311.5 314 192.47 286L22 355.492Z" fill="url(#paint0_linear_26_59)"/>
<path d="M43 209.358C167.052 243.656 493.714 355.787 548 436L503.584 354.274C445.61 234.784 246.222 193.809 199.468 162L43 209.358Z" fill="url(#paint1_linear_26_59)"/>
<path d="M57 133.578C181.075 178.969 493.704 312.843 548 419L503.576 310.84C445.591 152.703 296.265 123.097 249.503 81L57 133.578Z" fill="url(#paint2_linear_26_59)"/>
<path d="M96 114.111C210.22 165.143 498.017 315.652 548 435L507.105 313.4C453.726 135.612 316.26 102.328 273.213 55L96 114.111Z" fill="url(#paint3_linear_26_59)"/>
<path d="M526.048 392.826C531.98 403.294 537.008 413.389 541 423L526.048 392.826C458.082 272.894 271.506 104.142 167 57.0604L305.466 2C348.29 49.4756 470.688 209.927 523.79 388.27L526.048 392.826Z" fill="url(#paint4_angular_26_59)"/>
<path d="M248 18.4225C367.79 68.9392 502.579 317.856 555 436V382.89C514.368 204.25 396.161 18.4225 353.448 13L248 18.4225Z" fill="url(#paint5_angular_26_59)"/>
<path d="M399.718 2.62174L441.761 16.9032C448 19.5 448.5 22.5 451 27C490.486 138.894 554.339 349.898 565.89 369.008C576.742 386.963 581.652 388.381 584.569 387.408C585.203 387.196 585.85 387.003 586.518 387.01L941.999 390.48C943.259 390.493 944.447 391.104 945.183 392.126C966.54 421.763 972.825 445.793 966.5 445.5C837.973 441.33 577.986 440.129 565.89 438.7C553.96 437.29 538.872 418.386 532.549 408.723C532.371 408.452 532.235 408.166 532.129 407.86L394.649 7.7089C393.569 4.56556 396.571 1.55271 399.718 2.62174Z" fill="url(#paint6_linear_26_59)"/>
<path d="M422.794 28.2798L445.742 36.0204C446.338 36.2214 446.805 36.6909 447.002 37.2879L554.673 363.087C554.878 363.706 554.768 364.387 554.377 364.91L540.195 383.921C539.228 385.218 537.201 384.888 536.693 383.352L420.256 30.8021C419.739 29.2364 421.232 27.7528 422.794 28.2798Z" fill="url(#paint7_linear_26_59)"/>
<path d="M965.175 438.008C836.86 433.91 582.351 425.476 569.686 425.476C558.184 425.476 542.399 422.123 538.024 418.099C542.953 439.341 561.573 441.812 567.186 441.871C693.557 446.516 951.985 455.137 959.984 452.513C967.983 449.89 970.365 444.511 968.289 442.01L965.175 438.008Z" fill="url(#paint8_linear_26_59)"/>
<!-- <path d="M653.559 265.306C651.981 265.306 650.829 264.837 650.103 263.898C649.421 262.917 649.079 261.338 649.079 259.162V245.338C649.079 241.37 647.65 239.386 644.791 239.386C643.213 239.386 641.783 240.026 640.503 241.306C639.266 242.543 638.285 244.314 637.559 246.618C636.834 248.879 636.45 251.503 636.407 254.49V255.194C636.407 257.157 636.557 258.735 636.855 259.93C637.197 261.125 637.879 262.341 638.903 263.578L638.199 264.474H631.223V245.338C631.223 243.375 630.839 241.903 630.071 240.922C629.346 239.898 628.258 239.386 626.807 239.386C625.143 239.386 623.671 240.047 622.391 241.37C621.154 242.693 620.194 244.549 619.511 246.938C618.829 249.327 618.487 252.079 618.487 255.194C618.487 256.986 618.615 258.437 618.871 259.546C619.17 260.655 619.661 261.701 620.343 262.682L621.047 263.578L620.343 264.474H610.167L609.591 262.682L610.679 262.362C611.703 262.191 612.365 261.807 612.663 261.21C613.005 260.57 613.175 259.503 613.175 258.01V241.754C613.175 241.285 613.09 240.965 612.919 240.794C612.749 240.581 612.45 240.474 612.023 240.474H609.527L608.951 238.938C610.061 237.914 611.341 237.082 612.791 236.442C614.242 235.802 615.522 235.482 616.631 235.482C617.186 235.482 617.634 235.653 617.975 235.994C618.317 236.335 618.487 236.762 618.487 237.274V243.61C619.469 241.05 620.919 238.981 622.839 237.402C624.802 235.781 626.85 234.97 628.983 234.97C631.373 234.97 633.165 235.674 634.359 237.082C635.554 238.447 636.237 240.623 636.407 243.61C637.389 241.093 638.861 239.023 640.823 237.402C642.786 235.781 644.813 234.97 646.903 234.97C649.506 234.97 651.383 235.802 652.535 237.466C653.73 239.13 654.327 241.754 654.327 245.338V259.354C654.327 260.677 654.882 261.338 655.991 261.338C656.973 261.338 657.933 260.933 658.871 260.122L660.023 261.594C658.999 262.746 657.911 263.663 656.759 264.346C655.607 264.986 654.541 265.306 653.559 265.306Z" fill="url(#paint9_linear_26_59)"/> -->
<!-- <path d="M668.625 266.178L669.681 264.642C671.153 262.722 672.177 260.738 672.753 258.69C673.329 256.578 673.617 253.73 673.617 250.146V216.738C673.617 213.986 673.425 212.194 673.041 211.362C672.657 210.466 671.825 210.018 670.545 210.018H666.609C664.497 210.018 662.865 210.242 661.713 210.69C660.625 211.138 659.729 211.906 659.025 212.994C658.385 214.082 657.777 215.682 657.201 217.794L656.721 219.906L653.745 218.85V203.394L655.185 202.242L656.721 203.394C658.257 204.61 661.521 205.218 666.513 205.218H689.265C694.321 205.218 697.585 204.61 699.057 203.394L700.593 202.242L702.033 203.394V218.85L699.057 219.906L698.577 217.794C697.745 214.658 696.721 212.578 695.505 211.554C694.289 210.53 692.177 210.018 689.169 210.018H685.137C683.921 210.018 683.089 210.466 682.641 211.362C682.257 212.258 682.065 214.05 682.065 216.738V256.098C682.065 258.786 682.417 260.642 683.121 261.666C683.889 262.626 685.425 263.458 687.729 264.162L689.841 264.642L688.785 267.618H669.681L668.625 266.178Z" fill="url(#paint10_linear_26_59)"/> -->
<!-- <path d="M732.765 258.515C727.046 278.461 714.106 295.562 696.466 306.487C678.827 317.413 657.751 321.379 637.347 317.614C616.942 313.848 598.671 302.621 586.092 286.119C573.514 269.617 567.53 249.024 569.307 228.351C571.083 207.678 580.493 188.407 595.702 174.294C610.911 160.18 630.83 152.234 651.578 152.005C672.326 151.776 692.416 159.28 707.933 173.054C723.45 186.829 733.283 205.887 735.515 226.516L722.823 227.889C720.932 210.415 712.602 194.27 699.458 182.602C686.313 170.933 669.295 164.577 651.719 164.771C634.143 164.965 617.27 171.695 604.386 183.651C591.502 195.607 583.531 211.932 582.026 229.444C580.521 246.956 585.59 264.401 596.245 278.38C606.901 292.359 622.379 301.869 639.664 305.059C656.948 308.249 674.802 304.889 689.744 295.634C704.687 286.379 715.649 271.892 720.494 254.997L732.765 258.515Z" fill="url(#paint11_linear_26_59)"/> -->
<!-- <path d="M610.12 358C610.347 358 610.527 358.073 610.66 358.22C610.793 358.353 610.86 358.527 610.86 358.74V371.16C610.86 371.413 610.78 371.62 610.62 371.78C610.46 371.927 610.267 372 610.04 372C609.92 372 609.8 371.98 609.68 371.94C609.56 371.887 609.467 371.82 609.4 371.74L600.84 360.42L601.24 360.18V371.26C601.24 371.473 601.167 371.653 601.02 371.8C600.887 371.933 600.707 372 600.48 372C600.267 372 600.093 371.933 599.96 371.8C599.827 371.653 599.76 371.473 599.76 371.26V358.8C599.76 358.56 599.833 358.367 599.98 358.22C600.14 358.073 600.327 358 600.54 358C600.66 358 600.78 358.027 600.9 358.08C601.033 358.12 601.133 358.187 601.2 358.28L609.64 369.44L609.38 369.76V358.74C609.38 358.527 609.447 358.353 609.58 358.22C609.727 358.073 609.907 358 610.12 358ZM623.909 366.8C623.909 367.84 623.676 368.767 623.209 369.58C622.756 370.393 622.136 371.033 621.349 371.5C620.576 371.967 619.703 372.2 618.729 372.2C617.756 372.2 616.876 371.967 616.089 371.5C615.303 371.033 614.676 370.393 614.209 369.58C613.756 368.767 613.529 367.84 613.529 366.8C613.529 365.76 613.756 364.833 614.209 364.02C614.676 363.207 615.303 362.567 616.089 362.1C616.876 361.633 617.756 361.4 618.729 361.4C619.703 361.4 620.576 361.633 621.349 362.1C622.136 362.567 622.756 363.207 623.209 364.02C623.676 364.833 623.909 365.76 623.909 366.8ZM622.309 366.8C622.309 366.027 622.149 365.347 621.829 364.76C621.523 364.173 621.096 363.713 620.549 363.38C620.016 363.047 619.409 362.88 618.729 362.88C618.049 362.88 617.436 363.047 616.889 363.38C616.356 363.713 615.929 364.173 615.609 364.76C615.289 365.347 615.129 366.027 615.129 366.8C615.129 367.56 615.289 368.233 615.609 368.82C615.929 369.407 616.356 369.873 616.889 370.22C617.436 370.553 618.049 370.72 618.729 370.72C619.409 370.72 620.016 370.553 620.549 370.22C621.096 369.873 621.523 369.407 621.829 368.82C622.149 368.233 622.309 367.56 622.309 366.8ZM636.424 361.4C637.104 361.4 637.717 361.473 638.264 361.62C638.81 361.767 639.244 361.967 639.564 362.22C639.884 362.473 640.044 362.76 640.044 363.08C640.044 363.253 639.984 363.42 639.864 363.58C639.744 363.74 639.584 363.82 639.384 363.82C639.197 363.82 639.044 363.787 638.924 363.72C638.817 363.653 638.71 363.567 638.604 363.46C638.51 363.353 638.377 363.26 638.204 363.18C638.044 363.087 637.81 363.013 637.504 362.96C637.197 362.907 636.89 362.88 636.584 362.88C635.85 362.88 635.204 363.053 634.644 363.4C634.097 363.747 633.664 364.213 633.344 364.8C633.024 365.387 632.864 366.053 632.864 366.8C632.864 367.547 633.017 368.213 633.324 368.8C633.63 369.387 634.057 369.853 634.604 370.2C635.15 370.547 635.784 370.72 636.504 370.72C636.97 370.72 637.344 370.68 637.624 370.6C637.904 370.52 638.137 370.427 638.324 370.32C638.564 370.187 638.744 370.053 638.864 369.92C638.997 369.787 639.17 369.72 639.384 369.72C639.61 369.72 639.784 369.793 639.904 369.94C640.037 370.087 640.104 370.267 640.104 370.48C640.104 370.72 639.937 370.973 639.604 371.24C639.27 371.507 638.817 371.733 638.244 371.92C637.684 372.107 637.044 372.2 636.324 372.2C635.31 372.2 634.424 371.967 633.664 371.5C632.904 371.02 632.31 370.373 631.884 369.56C631.47 368.733 631.264 367.813 631.264 366.8C631.264 365.787 631.477 364.873 631.904 364.06C632.344 363.247 632.95 362.6 633.724 362.12C634.497 361.64 635.397 361.4 636.424 361.4ZM652.015 366.8C652.015 367.84 651.782 368.767 651.315 369.58C650.862 370.393 650.242 371.033 649.455 371.5C648.682 371.967 647.808 372.2 646.835 372.2C645.862 372.2 644.982 371.967 644.195 371.5C643.408 371.033 642.782 370.393 642.315 369.58C641.862 368.767 641.635 367.84 641.635 366.8C641.635 365.76 641.862 364.833 642.315 364.02C642.782 363.207 643.408 362.567 644.195 362.1C644.982 361.633 645.862 361.4 646.835 361.4C647.808 361.4 648.682 361.633 649.455 362.1C650.242 362.567 650.862 363.207 651.315 364.02C651.782 364.833 652.015 365.76 652.015 366.8ZM650.415 366.8C650.415 366.027 650.255 365.347 649.935 364.76C649.628 364.173 649.202 363.713 648.655 363.38C648.122 363.047 647.515 362.88 646.835 362.88C646.155 362.88 645.542 363.047 644.995 363.38C644.462 363.713 644.035 364.173 643.715 364.76C643.395 365.347 643.235 366.027 643.235 366.8C643.235 367.56 643.395 368.233 643.715 368.82C644.035 369.407 644.462 369.873 644.995 370.22C645.542 370.553 646.155 370.72 646.835 370.72C647.515 370.72 648.122 370.553 648.655 370.22C649.202 369.873 649.628 369.407 649.935 368.82C650.255 368.233 650.415 367.56 650.415 366.8ZM653.841 370.36C653.721 370.187 653.668 370.007 653.681 369.82C653.695 369.62 653.808 369.447 654.021 369.3C654.155 369.207 654.308 369.167 654.481 369.18C654.668 369.193 654.835 369.28 654.981 369.44C655.355 369.88 655.781 370.233 656.261 370.5C656.741 370.753 657.328 370.88 658.021 370.88C658.341 370.867 658.661 370.813 658.981 370.72C659.301 370.627 659.568 370.467 659.781 370.24C660.008 370 660.121 369.687 660.121 369.3C660.121 368.927 660.008 368.633 659.781 368.42C659.555 368.193 659.261 368.013 658.901 367.88C658.541 367.733 658.148 367.607 657.721 367.5C657.281 367.38 656.848 367.247 656.421 367.1C655.995 366.94 655.608 366.747 655.261 366.52C654.928 366.28 654.655 365.987 654.441 365.64C654.241 365.28 654.141 364.847 654.141 364.34C654.141 363.74 654.301 363.22 654.621 362.78C654.955 362.34 655.395 362 655.941 361.76C656.501 361.52 657.108 361.4 657.761 361.4C658.135 361.4 658.521 361.447 658.921 361.54C659.335 361.62 659.735 361.767 660.121 361.98C660.508 362.18 660.848 362.46 661.141 362.82C661.261 362.953 661.328 363.12 661.341 363.32C661.355 363.52 661.268 363.7 661.081 363.86C660.935 363.967 660.768 364.013 660.581 364C660.408 363.987 660.261 363.92 660.141 363.8C659.861 363.467 659.508 363.213 659.081 363.04C658.668 362.853 658.208 362.76 657.701 362.76C657.381 362.76 657.068 362.807 656.761 362.9C656.455 362.993 656.195 363.153 655.981 363.38C655.781 363.593 655.681 363.893 655.681 364.28C655.695 364.64 655.815 364.933 656.041 365.16C656.268 365.387 656.575 365.573 656.961 365.72C657.348 365.853 657.775 365.987 658.241 366.12C658.668 366.227 659.075 366.353 659.461 366.5C659.861 366.633 660.221 366.813 660.541 367.04C660.861 367.267 661.115 367.56 661.301 367.92C661.488 368.267 661.581 368.707 661.581 369.24C661.581 369.853 661.408 370.387 661.061 370.84C660.715 371.28 660.255 371.62 659.681 371.86C659.121 372.087 658.515 372.2 657.861 372.2C657.128 372.2 656.401 372.06 655.681 371.78C654.975 371.5 654.361 371.027 653.841 370.36ZM663.494 361.72H668.194C668.407 361.72 668.581 361.793 668.714 361.94C668.861 362.087 668.934 362.26 668.934 362.46C668.934 362.673 668.861 362.853 668.714 363C668.581 363.133 668.407 363.2 668.194 363.2H663.494C663.294 363.2 663.121 363.127 662.974 362.98C662.827 362.833 662.754 362.653 662.754 362.44C662.754 362.24 662.827 362.073 662.974 361.94C663.121 361.793 663.294 361.72 663.494 361.72ZM665.594 359C665.821 359 666.007 359.08 666.154 359.24C666.301 359.387 666.374 359.573 666.374 359.8V369.46C666.374 369.78 666.421 370.02 666.514 370.18C666.607 370.34 666.727 370.453 666.874 370.52C667.034 370.573 667.187 370.6 667.334 370.6C667.467 370.6 667.581 370.58 667.674 370.54C667.781 370.487 667.901 370.46 668.034 370.46C668.167 370.46 668.287 370.527 668.394 370.66C668.514 370.78 668.574 370.94 668.574 371.14C668.574 371.38 668.434 371.587 668.154 371.76C667.874 371.92 667.561 372 667.214 372C667.027 372 666.794 371.987 666.514 371.96C666.247 371.933 665.981 371.847 665.714 371.7C665.447 371.553 665.221 371.313 665.034 370.98C664.861 370.633 664.774 370.153 664.774 369.54V359.8C664.774 359.573 664.854 359.387 665.014 359.24C665.174 359.08 665.367 359 665.594 359ZM673.24 372.04C673.24 372.427 673.126 372.807 672.9 373.18C672.686 373.567 672.413 373.88 672.08 374.12C671.746 374.373 671.406 374.5 671.06 374.5C670.94 374.5 670.82 374.453 670.7 374.36C670.58 374.28 670.52 374.133 670.52 373.92C670.52 373.693 670.593 373.56 670.74 373.52C670.886 373.48 671.046 373.42 671.22 373.34C671.42 373.233 671.573 373.1 671.68 372.94C671.8 372.793 671.86 372.62 671.86 372.42C671.86 372.26 671.8 372.127 671.68 372.02C671.573 371.927 671.44 371.88 671.28 371.88C671.186 371.88 671.086 371.893 670.98 371.92C670.886 371.947 670.806 371.987 670.74 372.04C670.646 371.973 670.566 371.893 670.5 371.8C670.433 371.707 670.4 371.587 670.4 371.44C670.413 371.147 670.56 370.9 670.84 370.7C671.12 370.487 671.44 370.38 671.8 370.38C672.226 370.38 672.573 370.54 672.84 370.86C673.106 371.18 673.24 371.573 673.24 372.04ZM682.842 371.18C682.842 371.407 682.762 371.6 682.602 371.76C682.442 371.92 682.248 372 682.022 372C681.795 372 681.608 371.92 681.462 371.76C681.315 371.6 681.242 371.407 681.242 371.18V358C681.242 357.773 681.315 357.587 681.462 357.44C681.622 357.28 681.815 357.2 682.042 357.2C682.282 357.2 682.475 357.28 682.622 357.44C682.768 357.587 682.842 357.773 682.842 358V371.18ZM695.57 366.8C695.57 367.84 695.336 368.767 694.87 369.58C694.416 370.393 693.796 371.033 693.01 371.5C692.236 371.967 691.363 372.2 690.39 372.2C689.416 372.2 688.536 371.967 687.75 371.5C686.963 371.033 686.336 370.393 685.87 369.58C685.416 368.767 685.19 367.84 685.19 366.8C685.19 365.76 685.416 364.833 685.87 364.02C686.336 363.207 686.963 362.567 687.75 362.1C688.536 361.633 689.416 361.4 690.39 361.4C691.363 361.4 692.236 361.633 693.01 362.1C693.796 362.567 694.416 363.207 694.87 364.02C695.336 364.833 695.57 365.76 695.57 366.8ZM693.97 366.8C693.97 366.027 693.81 365.347 693.49 364.76C693.183 364.173 692.756 363.713 692.21 363.38C691.676 363.047 691.07 362.88 690.39 362.88C689.71 362.88 689.096 363.047 688.55 363.38C688.016 363.713 687.59 364.173 687.27 364.76C686.95 365.347 686.79 366.027 686.79 366.8C686.79 367.56 686.95 368.233 687.27 368.82C687.59 369.407 688.016 369.873 688.55 370.22C689.096 370.553 689.71 370.72 690.39 370.72C691.07 370.72 691.676 370.553 692.21 370.22C692.756 369.873 693.183 369.407 693.49 368.82C693.81 368.233 693.97 367.56 693.97 366.8ZM710.176 361.48C710.389 361.48 710.569 361.553 710.716 361.7C710.876 361.847 710.956 362.04 710.956 362.28C710.956 362.333 710.949 362.393 710.936 362.46C710.936 362.513 710.923 362.567 710.896 362.62L707.816 371.48C707.749 371.653 707.636 371.787 707.476 371.88C707.329 371.973 707.169 372.013 706.996 372C706.689 371.987 706.456 371.813 706.296 371.48L703.776 365.16L704.176 365.22L701.896 371.48C701.749 371.813 701.516 371.987 701.196 372C701.023 372.013 700.856 371.973 700.696 371.88C700.536 371.787 700.429 371.653 700.376 371.48L697.236 362.62C697.196 362.5 697.176 362.387 697.176 362.28C697.176 362.067 697.249 361.88 697.396 361.72C697.543 361.56 697.743 361.48 697.996 361.48C698.156 361.48 698.303 361.52 698.436 361.6C698.569 361.68 698.663 361.807 698.716 361.98L701.416 369.86L700.996 369.84L703.336 363.84C703.469 363.507 703.716 363.34 704.076 363.34C704.263 363.34 704.409 363.387 704.516 363.48C704.636 363.56 704.723 363.68 704.776 363.84L707.216 369.84L706.716 369.88L709.416 361.98C709.536 361.647 709.789 361.48 710.176 361.48ZM723.221 361.4C723.901 361.4 724.514 361.473 725.061 361.62C725.607 361.767 726.041 361.967 726.361 362.22C726.681 362.473 726.841 362.76 726.841 363.08C726.841 363.253 726.781 363.42 726.661 363.58C726.541 363.74 726.381 363.82 726.181 363.82C725.994 363.82 725.841 363.787 725.721 363.72C725.614 363.653 725.507 363.567 725.401 363.46C725.307 363.353 725.174 363.26 725.001 363.18C724.841 363.087 724.607 363.013 724.301 362.96C723.994 362.907 723.687 362.88 723.381 362.88C722.647 362.88 722.001 363.053 721.441 363.4C720.894 363.747 720.461 364.213 720.141 364.8C719.821 365.387 719.661 366.053 719.661 366.8C719.661 367.547 719.814 368.213 720.121 368.8C720.427 369.387 720.854 369.853 721.401 370.2C721.947 370.547 722.581 370.72 723.301 370.72C723.767 370.72 724.141 370.68 724.421 370.6C724.701 370.52 724.934 370.427 725.121 370.32C725.361 370.187 725.541 370.053 725.661 369.92C725.794 369.787 725.967 369.72 726.181 369.72C726.407 369.72 726.581 369.793 726.701 369.94C726.834 370.087 726.901 370.267 726.901 370.48C726.901 370.72 726.734 370.973 726.401 371.24C726.067 371.507 725.614 371.733 725.041 371.92C724.481 372.107 723.841 372.2 723.121 372.2C722.107 372.2 721.221 371.967 720.461 371.5C719.701 371.02 719.107 370.373 718.681 369.56C718.267 368.733 718.061 367.813 718.061 366.8C718.061 365.787 718.274 364.873 718.701 364.06C719.141 363.247 719.747 362.6 720.521 362.12C721.294 361.64 722.194 361.4 723.221 361.4ZM738.812 366.8C738.812 367.84 738.578 368.767 738.112 369.58C737.658 370.393 737.038 371.033 736.252 371.5C735.478 371.967 734.605 372.2 733.632 372.2C732.658 372.2 731.778 371.967 730.992 371.5C730.205 371.033 729.578 370.393 729.112 369.58C728.658 368.767 728.432 367.84 728.432 366.8C728.432 365.76 728.658 364.833 729.112 364.02C729.578 363.207 730.205 362.567 730.992 362.1C731.778 361.633 732.658 361.4 733.632 361.4C734.605 361.4 735.478 361.633 736.252 362.1C737.038 362.567 737.658 363.207 738.112 364.02C738.578 364.833 738.812 365.76 738.812 366.8ZM737.212 366.8C737.212 366.027 737.052 365.347 736.732 364.76C736.425 364.173 735.998 363.713 735.452 363.38C734.918 363.047 734.312 362.88 733.632 362.88C732.952 362.88 732.338 363.047 731.792 363.38C731.258 363.713 730.832 364.173 730.512 364.76C730.192 365.347 730.032 366.027 730.032 366.8C730.032 367.56 730.192 368.233 730.512 368.82C730.832 369.407 731.258 369.873 731.792 370.22C732.338 370.553 732.952 370.72 733.632 370.72C734.312 370.72 734.918 370.553 735.452 370.22C735.998 369.873 736.425 369.407 736.732 368.82C737.052 368.233 737.212 367.56 737.212 366.8ZM740.638 370.36C740.518 370.187 740.465 370.007 740.478 369.82C740.492 369.62 740.605 369.447 740.818 369.3C740.952 369.207 741.105 369.167 741.278 369.18C741.465 369.193 741.632 369.28 741.778 369.44C742.152 369.88 742.578 370.233 743.058 370.5C743.538 370.753 744.125 370.88 744.818 370.88C745.138 370.867 745.458 370.813 745.778 370.72C746.098 370.627 746.365 370.467 746.578 370.24C746.805 370 746.918 369.687 746.918 369.3C746.918 368.927 746.805 368.633 746.578 368.42C746.352 368.193 746.058 368.013 745.698 367.88C745.338 367.733 744.945 367.607 744.518 367.5C744.078 367.38 743.645 367.247 743.218 367.1C742.792 366.94 742.405 366.747 742.058 366.52C741.725 366.28 741.452 365.987 741.238 365.64C741.038 365.28 740.938 364.847 740.938 364.34C740.938 363.74 741.098 363.22 741.418 362.78C741.752 362.34 742.192 362 742.738 361.76C743.298 361.52 743.905 361.4 744.558 361.4C744.932 361.4 745.318 361.447 745.718 361.54C746.132 361.62 746.532 361.767 746.918 361.98C747.305 362.18 747.645 362.46 747.938 362.82C748.058 362.953 748.125 363.12 748.138 363.32C748.152 363.52 748.065 363.7 747.878 363.86C747.732 363.967 747.565 364.013 747.378 364C747.205 363.987 747.058 363.92 746.938 363.8C746.658 363.467 746.305 363.213 745.878 363.04C745.465 362.853 745.005 362.76 744.498 362.76C744.178 362.76 743.865 362.807 743.558 362.9C743.252 362.993 742.992 363.153 742.778 363.38C742.578 363.593 742.478 363.893 742.478 364.28C742.492 364.64 742.612 364.933 742.838 365.16C743.065 365.387 743.372 365.573 743.758 365.72C744.145 365.853 744.572 365.987 745.038 366.12C745.465 366.227 745.872 366.353 746.258 366.5C746.658 366.633 747.018 366.813 747.338 367.04C747.658 367.267 747.912 367.56 748.098 367.92C748.285 368.267 748.378 368.707 748.378 369.24C748.378 369.853 748.205 370.387 747.858 370.84C747.512 371.28 747.052 371.62 746.478 371.86C745.918 372.087 745.312 372.2 744.658 372.2C743.925 372.2 743.198 372.06 742.478 371.78C741.772 371.5 741.158 371.027 740.638 370.36ZM750.291 361.72H754.991C755.204 361.72 755.378 361.793 755.511 361.94C755.658 362.087 755.731 362.26 755.731 362.46C755.731 362.673 755.658 362.853 755.511 363C755.378 363.133 755.204 363.2 754.991 363.2H750.291C750.091 363.2 749.918 363.127 749.771 362.98C749.624 362.833 749.551 362.653 749.551 362.44C749.551 362.24 749.624 362.073 749.771 361.94C749.918 361.793 750.091 361.72 750.291 361.72ZM752.391 359C752.618 359 752.804 359.08 752.951 359.24C753.098 359.387 753.171 359.573 753.171 359.8V369.46C753.171 369.78 753.218 370.02 753.311 370.18C753.404 370.34 753.524 370.453 753.671 370.52C753.831 370.573 753.984 370.6 754.131 370.6C754.264 370.6 754.378 370.58 754.471 370.54C754.578 370.487 754.698 370.46 754.831 370.46C754.964 370.46 755.084 370.527 755.191 370.66C755.311 370.78 755.371 370.94 755.371 371.14C755.371 371.38 755.231 371.587 754.951 371.76C754.671 371.92 754.358 372 754.011 372C753.824 372 753.591 371.987 753.311 371.96C753.044 371.933 752.778 371.847 752.511 371.7C752.244 371.553 752.018 371.313 751.831 370.98C751.658 370.633 751.571 370.153 751.571 369.54V359.8C751.571 359.573 751.651 359.387 751.811 359.24C751.971 359.08 752.164 359 752.391 359ZM763.064 361.72H767.764C767.978 361.72 768.151 361.793 768.284 361.94C768.431 362.087 768.504 362.26 768.504 362.46C768.504 362.673 768.431 362.853 768.284 363C768.151 363.133 767.978 363.2 767.764 363.2H763.064C762.864 363.2 762.691 363.127 762.544 362.98C762.398 362.833 762.324 362.653 762.324 362.44C762.324 362.24 762.398 362.073 762.544 361.94C762.691 361.793 762.864 361.72 763.064 361.72ZM765.164 359C765.391 359 765.578 359.08 765.724 359.24C765.871 359.387 765.944 359.573 765.944 359.8V369.46C765.944 369.78 765.991 370.02 766.084 370.18C766.178 370.34 766.298 370.453 766.444 370.52C766.604 370.573 766.758 370.6 766.904 370.6C767.038 370.6 767.151 370.58 767.244 370.54C767.351 370.487 767.471 370.46 767.604 370.46C767.738 370.46 767.858 370.527 767.964 370.66C768.084 370.78 768.144 370.94 768.144 371.14C768.144 371.38 768.004 371.587 767.724 371.76C767.444 371.92 767.131 372 766.784 372C766.598 372 766.364 371.987 766.084 371.96C765.818 371.933 765.551 371.847 765.284 371.7C765.018 371.553 764.791 371.313 764.604 370.98C764.431 370.633 764.344 370.153 764.344 369.54V359.8C764.344 359.573 764.424 359.387 764.584 359.24C764.744 359.08 764.938 359 765.164 359ZM778.47 361.66C778.71 361.66 778.903 361.74 779.05 361.9C779.197 362.047 779.27 362.233 779.27 362.46V367.92C779.27 369.267 778.89 370.313 778.13 371.06C777.383 371.793 776.337 372.16 774.99 372.16C773.657 372.16 772.61 371.793 771.85 371.06C771.103 370.313 770.73 369.267 770.73 367.92V362.46C770.73 362.233 770.803 362.047 770.95 361.9C771.11 361.74 771.303 361.66 771.53 361.66C771.77 361.66 771.963 361.74 772.11 361.9C772.257 362.047 772.33 362.233 772.33 362.46V367.92C772.33 368.827 772.563 369.513 773.03 369.98C773.497 370.447 774.15 370.68 774.99 370.68C775.857 370.68 776.517 370.447 776.97 369.98C777.437 369.513 777.67 368.827 777.67 367.92V362.46C777.67 362.233 777.743 362.047 777.89 361.9C778.05 361.74 778.243 361.66 778.47 361.66ZM783.774 371.18C783.774 371.407 783.694 371.6 783.534 371.76C783.387 371.92 783.201 372 782.974 372C782.734 372 782.541 371.92 782.394 371.76C782.247 371.6 782.174 371.407 782.174 371.18V362.3C782.174 362.073 782.247 361.887 782.394 361.74C782.554 361.58 782.747 361.5 782.974 361.5C783.201 361.5 783.387 361.58 783.534 361.74C783.694 361.887 783.774 362.073 783.774 362.3V371.18ZM782.974 360.16C782.641 360.16 782.394 360.093 782.234 359.96C782.074 359.827 781.994 359.62 781.994 359.34V359.06C781.994 358.78 782.081 358.573 782.254 358.44C782.427 358.307 782.674 358.24 782.994 358.24C783.314 358.24 783.554 358.307 783.714 358.44C783.874 358.573 783.954 358.78 783.954 359.06V359.34C783.954 359.62 783.867 359.827 783.694 359.96C783.534 360.093 783.294 360.16 782.974 360.16ZM786.248 361.72H790.948C791.161 361.72 791.335 361.793 791.468 361.94C791.615 362.087 791.688 362.26 791.688 362.46C791.688 362.673 791.615 362.853 791.468 363C791.335 363.133 791.161 363.2 790.948 363.2H786.248C786.048 363.2 785.875 363.127 785.728 362.98C785.581 362.833 785.508 362.653 785.508 362.44C785.508 362.24 785.581 362.073 785.728 361.94C785.875 361.793 786.048 361.72 786.248 361.72ZM788.348 359C788.575 359 788.761 359.08 788.908 359.24C789.055 359.387 789.128 359.573 789.128 359.8V369.46C789.128 369.78 789.175 370.02 789.268 370.18C789.361 370.34 789.481 370.453 789.628 370.52C789.788 370.573 789.941 370.6 790.088 370.6C790.221 370.6 790.335 370.58 790.428 370.54C790.535 370.487 790.655 370.46 790.788 370.46C790.921 370.46 791.041 370.527 791.148 370.66C791.268 370.78 791.328 370.94 791.328 371.14C791.328 371.38 791.188 371.587 790.908 371.76C790.628 371.92 790.315 372 789.968 372C789.781 372 789.548 371.987 789.268 371.96C789.001 371.933 788.735 371.847 788.468 371.7C788.201 371.553 787.975 371.313 787.788 370.98C787.615 370.633 787.528 370.153 787.528 369.54V359.8C787.528 359.573 787.608 359.387 787.768 359.24C787.928 359.08 788.121 359 788.348 359ZM795.454 371.18C795.454 371.407 795.374 371.6 795.214 371.76C795.067 371.92 794.88 372 794.654 372C794.414 372 794.22 371.92 794.074 371.76C793.927 371.6 793.854 371.407 793.854 371.18V362.3C793.854 362.073 793.927 361.887 794.074 361.74C794.234 361.58 794.427 361.5 794.654 361.5C794.88 361.5 795.067 361.58 795.214 361.74C795.374 361.887 795.454 362.073 795.454 362.3V371.18ZM794.654 360.16C794.32 360.16 794.074 360.093 793.914 359.96C793.754 359.827 793.674 359.62 793.674 359.34V359.06C793.674 358.78 793.76 358.573 793.934 358.44C794.107 358.307 794.354 358.24 794.674 358.24C794.994 358.24 795.234 358.307 795.394 358.44C795.554 358.573 795.634 358.78 795.634 359.06V359.34C795.634 359.62 795.547 359.827 795.374 359.96C795.214 360.093 794.974 360.16 794.654 360.16ZM808.148 366.8C808.148 367.84 807.914 368.767 807.448 369.58C806.994 370.393 806.374 371.033 805.588 371.5C804.814 371.967 803.941 372.2 802.968 372.2C801.994 372.2 801.114 371.967 800.328 371.5C799.541 371.033 798.914 370.393 798.448 369.58C797.994 368.767 797.768 367.84 797.768 366.8C797.768 365.76 797.994 364.833 798.448 364.02C798.914 363.207 799.541 362.567 800.328 362.1C801.114 361.633 801.994 361.4 802.968 361.4C803.941 361.4 804.814 361.633 805.588 362.1C806.374 362.567 806.994 363.207 807.448 364.02C807.914 364.833 808.148 365.76 808.148 366.8ZM806.548 366.8C806.548 366.027 806.388 365.347 806.068 364.76C805.761 364.173 805.334 363.713 804.788 363.38C804.254 363.047 803.648 362.88 802.968 362.88C802.288 362.88 801.674 363.047 801.128 363.38C800.594 363.713 800.168 364.173 799.848 364.76C799.528 365.347 799.368 366.027 799.368 366.8C799.368 367.56 799.528 368.233 799.848 368.82C800.168 369.407 800.594 369.873 801.128 370.22C801.674 370.553 802.288 370.72 802.968 370.72C803.648 370.72 804.254 370.553 804.788 370.22C805.334 369.873 805.761 369.407 806.068 368.82C806.388 368.233 806.548 367.56 806.548 366.8ZM815.694 361.4C816.601 361.4 817.314 361.587 817.834 361.96C818.354 362.333 818.721 362.833 818.934 363.46C819.161 364.087 819.274 364.787 819.274 365.56V371.18C819.274 371.407 819.194 371.6 819.034 371.76C818.888 371.92 818.701 372 818.474 372C818.248 372 818.054 371.92 817.894 371.76C817.748 371.6 817.674 371.407 817.674 371.18V365.6C817.674 365.093 817.594 364.64 817.434 364.24C817.288 363.827 817.034 363.5 816.674 363.26C816.328 363.007 815.848 362.88 815.234 362.88C814.674 362.88 814.161 363.007 813.694 363.26C813.228 363.5 812.854 363.827 812.574 364.24C812.294 364.64 812.154 365.093 812.154 365.6V371.18C812.154 371.407 812.074 371.6 811.914 371.76C811.768 371.92 811.581 372 811.354 372C811.128 372 810.934 371.92 810.774 371.76C810.628 371.6 810.554 371.407 810.554 371.18V362.46C810.554 362.233 810.628 362.047 810.774 361.9C810.934 361.74 811.128 361.66 811.354 361.66C811.594 361.66 811.788 361.74 811.934 361.9C812.081 362.047 812.154 362.233 812.154 362.46V363.88L811.754 364.32C811.821 363.973 811.974 363.627 812.214 363.28C812.454 362.92 812.754 362.6 813.114 362.32C813.474 362.04 813.874 361.82 814.314 361.66C814.754 361.487 815.214 361.4 815.694 361.4Z" fill="white" fill-opacity="0.84"/> -->
<!-- <path d="M597.999 348.496H821.001" stroke="white" stroke-opacity="0.67"/> -->
<defs>
<linearGradient id="paint0_linear_26_59" x1="201.661" y1="225.883" x2="111.756" y2="402.829" gradientUnits="userSpaceOnUse">
<stop stop-color="#636363"/>
<stop offset="0.86" stop-color="#D9D9D9"/>
</linearGradient>
<linearGradient id="paint1_linear_26_59" x1="355.5" y1="195.5" x2="101.844" y2="401.896" gradientUnits="userSpaceOnUse">
<stop stop-color="#636363"/>
<stop offset="0.50291" stop-color="#D9D9D9"/>
</linearGradient>
<linearGradient id="paint2_linear_26_59" x1="675.5" y1="333.5" x2="177.235" y2="92.9412" gradientUnits="userSpaceOnUse">
<stop stop-color="#737373"/>
<stop offset="1" stop-color="#D9D9D9"/>
</linearGradient>
<linearGradient id="paint3_linear_26_59" x1="533" y1="180" x2="-64.5094" y2="67.0084" gradientUnits="userSpaceOnUse">
<stop stop-color="#737373"/>
<stop offset="0.41" stop-color="#D9D9D9"/>
</linearGradient>
<radialGradient id="paint4_angular_26_59" cx="0" cy="0" r="1" gradientUnits="userSpaceOnUse" gradientTransform="translate(319.175 186.75) rotate(87.9658) scale(77.2987 68.9421)">
<stop offset="0.121871" stop-color="#737373"/>
<stop offset="0.403126" stop-color="#D9D9D9"/>
</radialGradient>
<radialGradient id="paint5_angular_26_59" cx="0" cy="0" r="1" gradientUnits="userSpaceOnUse" gradientTransform="translate(401.5 213.644) rotate(150.492) scale(45.3875 57.5362)">
<stop stop-color="#F4F4F4"/>
<stop offset="1" stop-color="#737373"/>
</radialGradient>
<linearGradient id="paint6_linear_26_59" x1="533.5" y1="18.5" x2="951" y2="386" gradientUnits="userSpaceOnUse">
<stop offset="0.00276657" stop-color="#D9D9D9"/>
<stop offset="1" stop-color="#737373"/>
</linearGradient>
<linearGradient id="paint7_linear_26_59" x1="487" y1="27" x2="487" y2="387" gradientUnits="userSpaceOnUse">
<stop offset="0.06" stop-color="#5F5F5F"/>
<stop offset="0.505" stop-color="#4D4D4D"/>
<stop offset="1" stop-color="#6C7172"/>
</linearGradient>
<linearGradient id="paint8_linear_26_59" x1="538" y1="433.507" x2="972.96" y2="433.507" gradientUnits="userSpaceOnUse">
<stop stop-color="#6C7172"/>
<stop offset="1" stop-color="#CDD6D8"/>
</linearGradient>
<linearGradient id="paint9_linear_26_59" x1="633.194" y1="194.474" x2="633.194" y2="286.179" gradientUnits="userSpaceOnUse">
<stop stop-color="#F2E6E6"/>
<stop offset="1" stop-color="#C0C0C0"/>
</linearGradient>
<linearGradient id="paint10_linear_26_59" x1="677.116" y1="162.618" x2="677.116" y2="299.694" gradientUnits="userSpaceOnUse">
<stop stop-color="#F2E6E6"/>
<stop offset="1" stop-color="#C0C0C0"/>
</linearGradient>
<linearGradient id="paint11_linear_26_59" x1="652.5" y1="152" x2="652.5" y2="319" gradientUnits="userSpaceOnUse">
<stop stop-color="#EFEFEF"/>
<stop offset="1" stop-color="#B9B9B9"/>
</linearGradient>
</defs>
</svg>
