<?xml version="1.0" encoding="UTF-8"?>
<svg xmlns="http://www.w3.org/2000/svg" width="500" height="150" viewBox="0 0 500 150">
  <rect width="100%" height="100%" fill="transparent" />
  
  <!-- Code 128B Barcode for "Unleash your potential" -->
  <!-- Each character in Code 128B is represented by 3 bars and 3 spaces (11 modules total) -->
  
  <!-- Start Code B (211214) -->
  <rect x="10" y="20" width="2" height="100" fill="white" />
  <rect x="14" y="20" width="1" height="100" fill="white" />
  <rect x="17" y="20" width="2" height="100" fill="white" />
  <rect x="21" y="20" width="1" height="100" fill="white" />
  <rect x="24" y="20" width="4" height="100" fill="white" />
  
  <!-- 'U' (85): 122212 -->
  <rect x="30" y="20" width="1" height="100" fill="white" />
  <rect x="33" y="20" width="2" height="100" fill="white" />
  <rect x="37" y="20" width="2" height="100" fill="white" />
  <rect x="41" y="20" width="2" height="100" fill="white" />
  <rect x="45" y="20" width="1" height="100" fill="white" />
  <rect x="48" y="20" width="2" height="100" fill="white" />
  
  <!-- 'n' (110): 221122 -->
  <rect x="52" y="20" width="2" height="100" fill="white" />
  <rect x="56" y="20" width="2" height="100" fill="white" />
  <rect x="60" y="20" width="1" height="100" fill="white" />
  <rect x="63" y="20" width="1" height="100" fill="white" />
  <rect x="66" y="20" width="2" height="100" fill="white" />
  <rect x="70" y="20" width="2" height="100" fill="white" />
  
  <!-- 'l' (108): 212122 -->
  <rect x="74" y="20" width="2" height="100" fill="white" />
  <rect x="78" y="20" width="1" height="100" fill="white" />
  <rect x="81" y="20" width="2" height="100" fill="white" />
  <rect x="85" y="20" width="1" height="100" fill="white" />
  <rect x="88" y="20" width="2" height="100" fill="white" />
  <rect x="92" y="20" width="2" height="100" fill="white" />
  
  <!-- 'e' (101): 222121 -->
  <rect x="96" y="20" width="2" height="100" fill="white" />
  <rect x="100" y="20" width="2" height="100" fill="white" />
  <rect x="104" y="20" width="2" height="100" fill="white" />
  <rect x="108" y="20" width="1" height="100" fill="white" />
  <rect x="111" y="20" width="2" height="100" fill="white" />
  <rect x="115" y="20" width="1" height="100" fill="white" />
  
  <!-- 'a' (97): 121222 -->
  <rect x="118" y="20" width="1" height="100" fill="white" />
  <rect x="121" y="20" width="2" height="100" fill="white" />
  <rect x="125" y="20" width="1" height="100" fill="white" />
  <rect x="128" y="20" width="2" height="100" fill="white" />
  <rect x="132" y="20" width="2" height="100" fill="white" />
  <rect x="136" y="20" width="2" height="100" fill="white" />
  
  <!-- 's' (115): 221221 -->
  <rect x="140" y="20" width="2" height="100" fill="white" />
  <rect x="144" y="20" width="2" height="100" fill="white" />
  <rect x="148" y="20" width="1" height="100" fill="white" />
  <rect x="151" y="20" width="2" height="100" fill="white" />
  <rect x="155" y="20" width="2" height="100" fill="white" />
  <rect x="159" y="20" width="1" height="100" fill="white" />
  
  <!-- 'h' (104): 112213 -->
  <rect x="162" y="20" width="1" height="100" fill="white" />
  <rect x="165" y="20" width="1" height="100" fill="white" />
  <rect x="168" y="20" width="2" height="100" fill="white" />
  <rect x="172" y="20" width="2" height="100" fill="white" />
  <rect x="176" y="20" width="1" height="100" fill="white" />
  <rect x="179" y="20" width="3" height="100" fill="white" />
  
  <!-- ' ' (space) (32): 212222 -->
  <rect x="184" y="20" width="2" height="100" fill="white" />
  <rect x="188" y="20" width="1" height="100" fill="white" />
  <rect x="191" y="20" width="2" height="100" fill="white" />
  <rect x="195" y="20" width="2" height="100" fill="white" />
  <rect x="199" y="20" width="2" height="100" fill="white" />
  <rect x="203" y="20" width="2" height="100" fill="white" />
  
  <!-- 'y' (121): 311122 -->
  <rect x="207" y="20" width="3" height="100" fill="white" />
  <rect x="212" y="20" width="1" height="100" fill="white" />
  <rect x="215" y="20" width="1" height="100" fill="white" />
  <rect x="218" y="20" width="1" height="100" fill="white" />
  <rect x="221" y="20" width="2" height="100" fill="white" />
  <rect x="225" y="20" width="2" height="100" fill="white" />
  
  <!-- 'o' (111): 122122 -->
  <rect x="229" y="20" width="1" height="100" fill="white" />
  <rect x="232" y="20" width="2" height="100" fill="white" />
  <rect x="236" y="20" width="2" height="100" fill="white" />
  <rect x="240" y="20" width="1" height="100" fill="white" />
  <rect x="243" y="20" width="2" height="100" fill="white" />
  <rect x="247" y="20" width="2" height="100" fill="white" />
  
  <!-- 'u' (117): 221212 -->
  <rect x="251" y="20" width="2" height="100" fill="white" />
  <rect x="255" y="20" width="2" height="100" fill="white" />
  <rect x="259" y="20" width="1" height="100" fill="white" />
  <rect x="262" y="20" width="2" height="100" fill="white" />
  <rect x="266" y="20" width="1" height="100" fill="white" />
  <rect x="269" y="20" width="2" height="100" fill="white" />
  
  <!-- 'r' (114): 211123 -->
  <rect x="273" y="20" width="2" height="100" fill="white" />
  <rect x="277" y="20" width="1" height="100" fill="white" />
  <rect x="280" y="20" width="1" height="100" fill="white" />
  <rect x="283" y="20" width="1" height="100" fill="white" />
  <rect x="286" y="20" width="2" height="100" fill="white" />
  <rect x="290" y="20" width="3" height="100" fill="white" />
  
  <!-- 'p' (112): 132112 -->
  <rect x="295" y="20" width="1" height="100" fill="white" />
  <rect x="298" y="20" width="3" height="100" fill="white" />
  <rect x="303" y="20" width="2" height="100" fill="white" />
  <rect x="307" y="20" width="1" height="100" fill="white" />
  <rect x="310" y="20" width="1" height="100" fill="white" />
  <rect x="313" y="20" width="2" height="100" fill="white" />
  
  <!-- 'o' (111): 122122 -->
  <rect x="317" y="20" width="1" height="100" fill="white" />
  <rect x="320" y="20" width="2" height="100" fill="white" />
  <rect x="324" y="20" width="2" height="100" fill="white" />
  <rect x="328" y="20" width="1" height="100" fill="white" />
  <rect x="331" y="20" width="2" height="100" fill="white" />
  <rect x="335" y="20" width="2" height="100" fill="white" />
  
  <!-- 't' (116): 111223 -->
  <rect x="339" y="20" width="1" height="100" fill="white" />
  <rect x="342" y="20" width="1" height="100" fill="white" />
  <rect x="345" y="20" width="1" height="100" fill="white" />
  <rect x="348" y="20" width="2" height="100" fill="white" />
  <rect x="352" y="20" width="2" height="100" fill="white" />
  <rect x="356" y="20" width="3" height="100" fill="white" />
  
  <!-- 'e' (101): 222121 -->
  <rect x="361" y="20" width="2" height="100" fill="white" />
  <rect x="365" y="20" width="2" height="100" fill="white" />
  <rect x="369" y="20" width="2" height="100" fill="white" />
  <rect x="373" y="20" width="1" height="100" fill="white" />
  <rect x="376" y="20" width="2" height="100" fill="white" />
  <rect x="380" y="20" width="1" height="100" fill="white" />
  
  <!-- 'n' (110): 221122 -->
  <rect x="383" y="20" width="2" height="100" fill="white" />
  <rect x="387" y="20" width="2" height="100" fill="white" />
  <rect x="391" y="20" width="1" height="100" fill="white" />
  <rect x="394" y="20" width="1" height="100" fill="white" />
  <rect x="397" y="20" width="2" height="100" fill="white" />
  <rect x="401" y="20" width="2" height="100" fill="white" />
  
  <!-- 't' (116): 111223 -->
  <rect x="405" y="20" width="1" height="100" fill="white" />
  <rect x="408" y="20" width="1" height="100" fill="white" />
  <rect x="411" y="20" width="1" height="100" fill="white" />
  <rect x="414" y="20" width="2" height="100" fill="white" />
  <rect x="418" y="20" width="2" height="100" fill="white" />
  <rect x="422" y="20" width="3" height="100" fill="white" />
  
  <!-- 'i' (105): 122113 -->
  <rect x="427" y="20" width="1" height="100" fill="white" />
  <rect x="430" y="20" width="2" height="100" fill="white" />
  <rect x="434" y="20" width="2" height="100" fill="white" />
  <rect x="438" y="20" width="1" height="100" fill="white" />
  <rect x="441" y="20" width="1" height="100" fill="white" />
  <rect x="444" y="20" width="3" height="100" fill="white" />
  
  <!-- 'a' (97): 121222 -->
  <rect x="449" y="20" width="1" height="100" fill="white" />
  <rect x="452" y="20" width="2" height="100" fill="white" />
  <rect x="456" y="20" width="1" height="100" fill="white" />
  <rect x="459" y="20" width="2" height="100" fill="white" />
  <rect x="463" y="20" width="2" height="100" fill="white" />
  <rect x="467" y="20" width="2" height="100" fill="white" />
  
  <!-- 'l' (108): 212122 -->
  <rect x="471" y="20" width="2" height="100" fill="white" />
  <rect x="475" y="20" width="1" height="100" fill="white" />
  <rect x="478" y="20" width="2" height="100" fill="white" />
  <rect x="482" y="20" width="1" height="100" fill="white" />
  <rect x="485" y="20" width="2" height="100" fill="white" />
  <rect x="489" y="20" width="2" height="100" fill="white" />
  
  <!-- Checksum calculation would go here -->
  
  <!-- Stop pattern (2331112) -->
  <rect x="493" y="20" width="2" height="100" fill="white" />
  <rect x="497" y="20" width="3" height="100" fill="white" />
  <rect x="502" y="20" width="3" height="100" fill="white" />
  <rect x="507" y="20" width="1" height="100" fill="white" />
  <rect x="510" y="20" width="1" height="100" fill="white" />
  <rect x="513" y="20" width="2" height="100" fill="white" />
  
  <!-- Text Label -->
  <text x="250" y="140" font-family="Arial, sans-serif" font-size="12" text-anchor="middle" fill="white">Unleash your potential</text>
</svg>